<?xml version="1.0" encoding="utf-8"?>
<svg id="Home-Slide-4" image-rendering="auto" baseProfile="basic" version="1.1" x="0px" y="0px" width="280" height="260" xmlns="http://www.w3.org/2000/svg" xmlns:xlink="http://www.w3.org/1999/xlink">
  <g id="Szene-1" overflow="visible">
    <g id="Symbol-41" transform="translate(56.8 193)">
      <g id="Symbol-51" transform="translate(-49.6 -42.15)">
        <animateTransform attributeName="transform" additive="replace" type="translate" dur="2.083s" keyTimes="0;1" values="0,0;0,0" fill="freeze"/>
        <animateTransform attributeName="transform" additive="sum" type="translate" repeatCount="indefinite" dur="2.083s" keyTimes="0;.02;.04;.06;.08;.1;.12;.14;.16;.18;.2;.22;.24;.26;.28;.3;.32;.34;.36;.38;.4;.42;.44;.46;.48;.5;.52;.54;.559;.55999;.56;1" values="0,0;-.043,-.012;-.012,-.026;-.033,-.043;-.005,-.012;-.027,-.028;-.021,-.041;-.043,-.008;-.019,-.029;-.045,.001;-.02,-.019;-.049,-.04;-.038,-.002;-.02,-.027;-.051,-.047;-.028,-.019;-.012,-.047;-.045,-.02;-.037,-.035;-.017,-.012;-.004,-.036;-.037,-.013;-.028,-.045;-.015,-.022;-.006,-.034;-.015,-.024;-.028,-.046;-.036,-.013;-.003,-.04;-.014,-.013;0;0"/>
        <animateTransform attributeName="transform" additive="sum" type="translate" repeatCount="indefinite" dur="2.083s" keyTimes="0;.55999;.56;.58;.6;.62;.64;.66;.68;.7;.72;.74;.76;.78;.8;.82;.84;.86;.88;.9;.92;.94;.96;.98;1" values="0;0;-.003,-.04;-.014,-.013;-.027,.001;-.039,-.024;-.007,-.001;-.026,-.026;-.044,-.001;-.006,-.042;-.022,-.018;-.044,-.045;-.016,-.026;-.039,-.007;-.047,-.043;-.021,-.024;-.045,-.004;-.021,-.036;-.049,-.02;-.007,-.009;-.034,-.041;-.012,-.026;-.043,-.012;0,0;0,0"/>
        <animateTransform attributeName="transform" additive="sum" type="rotate" repeatCount="indefinite" dur="2.083s" keyTimes="0;.02;.04;.06;.08;.1;.12;.14;.16;.18;.2;.22;.24;.26;.28;.3;.32;.34;.36;.38;.4;.42;.44;.46;.48;.5;.52;.54;.559;.55999;.56;1" values="0,0,0;-.05,0,0;-.29,0,0;-.53,0,0;-.77,0,0;-1.01,0,0;-1.059,0,0;-1.3,0,0;-1.54,0,0;-1.78,0,0;-2.02,0,0;-2.258,0,0;-2.31,0,0;-2.55,0,0;-2.79,0,0;-3.03,0,0;-3.271,0,0;-3.508,0,0;-3.561,0,0;-3.801,0,0;-4.041,0,0;-4.281,0,0;-4.518,0,0;-4.758,0,0;-4.811,0,0;-4.761,0,0;-4.524,0,0;-4.286,0,0;-4.049,0,0;-3.811,0,0;0;0"/>
        <animateTransform attributeName="transform" additive="sum" type="rotate" repeatCount="indefinite" dur="2.083s" keyTimes="0;.55999;.56;.58;.6;.62;.64;.66;.68;.7;.72;.74;.76;.78;.8;.82;.84;.86;.88;.9;.92;.94;.96;.98;1" values="0;0;-4.049,0,0;-3.811,0,0;-3.761,0,0;-3.523,0,0;-3.285,0,0;-3.048,0,0;-2.81,0,0;-2.761,0,0;-2.522,0,0;-2.285,0,0;-2.048,0,0;-1.81,0,0;-1.76,0,0;-1.523,0,0;-1.285,0,0;-1.047,0,0;-.81,0,0;-.76,0,0;-.523,0,0;-.285,0,0;-.047,0,0;0,0,0;0,0,0"/>
        <animateTransform attributeName="transform" additive="sum" type="scale" repeatCount="indefinite" dur="2.083s" keyTimes="0;.4;.42;.54;.559;.55999;.56;1" values="1,1;1,1;1,.999;1,.999;1,1;1,1;1;1"/>
        <animateTransform attributeName="transform" additive="sum" type="translate" repeatCount="indefinite" dur="2.083s" keyTimes="0;.02;.04;.06;.08;.1;.12;.14;.16;.18;.2;.22;.24;.26;.28;.3;.32;.34;.36;.38;.4;.42;.44;.52;.54;.559;.55999;.56;1" values="-49.6,-42.15;-49.5,-42.1;-49.55,-42.05;-49.5,-42.05;-49.55,-42.1;-49.5,-42.1;-49.55,-42.05;-49.5,-42.1;-49.55,-42.05;-49.5,-42.1;-49.5,-42.1;-49.5,-42.05;-49.55,-42.1;-49.55,-42.05;-49.5,-42.05;-49.5,-42.1;-49.55,-42.05;-49.5,-42.05;-49.55,-42.05;-49.55,-42.1;-49.55,-42.05;-49.5,-42.1;-49.55,-42.05;-49.55,-42.05;-49.5,-42.1;-49.55,-42.05;-49.55,-42.1;0;0"/>
        <animateTransform attributeName="transform" additive="sum" type="translate" repeatCount="indefinite" dur="2.083s" keyTimes="0;.55999;.56;.58;.6;.62;.64;.66;.68;.7;.72;.74;.76;.78;.8;.84;.86;.88;.9;.92;.94;.96;.98;1" values="0;0;-49.55,-42.05;-49.55,-42.1;-49.5,-42.05;-49.5,-42.1;-49.55,-42.1;-49.55,-42.05;-49.5,-42.1;-49.55,-42.05;-49.5,-42.1;-49.5,-42.05;-49.55,-42.05;-49.55,-42.1;-49.5,-42.1;-49.5,-42.1;-49.55,-42.05;-49.5,-42.05;-49.55,-42.1;-49.5,-42.05;-49.55,-42.1;-49.5,-42.1;-49.6,-42.15;-49.6,-42.15"/>
        <path fill="#F0F0F0" stroke="none" d="M32.5 28.3L5.25 38.9Q4.4 39.2 4.1 40.05 3.75 40.8 4.05 41.6L12.4 63Q12.7 63.85 13.55 64.2 14.3 64.55 15.1 64.25L42.35 53.65 32.5 28.3Z"/>
        <path fill="#D6D6D5" stroke="none" d="M33.6 57.05L21.9 61.6 30.25 83Q30.6 83.85 31.4 84.15 32.15 84.5 32.95 84.2L40.75 81.15Q41.55 80.85 41.9 80.05 42.3 79.3 41.95 78.45L33.6 57.05Z"/>
        <path fill="#FEFEFE" stroke="none" d="M42.4 53.65L80.25 52.3 61.3 3.6 32.55 28.3 42.4 53.65Z"/>
        <path fill="#E4E3E3" stroke="none" d="M42.4 53.65L80.25 52.3 70.8 28 37.5 41 42.4 53.65Z"/>
        <path fill="#FEFEFE" stroke="none" d="M71.25 20.4L76.25 33.25Q78.9 32.2 80.05 29.65 81.2 27 80.2 24.35 79.15 21.7 76.5 20.5 73.9 19.35 71.25 20.4Z"/>
        <path fill="#2B303E" stroke="none" d="M84.7 53.05Q84.85 52.7 84.7 52.3L64.55 .65Q64.4 .2 64.05 .05 63.6 -.05 63.25 .1L61.3 .85Q60.9 1 60.7 1.35 60.55 1.75 60.7 2.15L80.85 53.8Q81 54.15 81.35 54.35 81.7 54.55 82.15 54.4L84.1 53.65Q84.5 53.45 84.7 53.05Z"/>
        <path fill="#2B303E" stroke="none" d="M.2 47.15Q-.15 47.95 .15 48.8L4.7 60.5Q5 61.25 5.85 61.6 6.55 61.95 7.4 61.6L11.3 60.1 5.25 44.55 1.35 46.05Q.5 46.4 .2 47.15Z"/>
        <path fill="#2B303E" stroke="none" d="M36.4 64.1L40.4 62.55 35.15 56.45 33.65 57.05 36.4 64.1Z"/>
        <path fill="#C9C9C8" stroke="none" d="M17.2 37.6L16.7 37.8 24.25 57.3 24.75 57.1 17.2 37.6Z"/>
        <path fill="#C9C9C8" stroke="none" d="M15.65 38.2L15.15 38.4 22.7 57.9 23.2 57.7 15.65 38.2Z"/>
        <path fill="#C9C9C8" stroke="none" d="M14.1 38.8L13.6 39 21.15 58.5 21.65 58.3 14.1 38.8Z"/>
        <path fill="#C9C9C8" stroke="none" d="M12.5 39.45L12.05 39.6 19.6 59.1 20.05 58.95 12.5 39.45Z"/>
        <path fill="#C9C9C8" stroke="none" d="M10.95 40.05L10.5 40.2 18.05 59.7 18.5 59.55 10.95 40.05Z"/>
        <path fill="#C9C9C8" stroke="none" d="M9.45 40.65L8.95 40.8 16.5 60.3 17 60.15 9.45 40.65Z"/>
        <path fill="#C9C9C8" stroke="none" d="M7.9 41.25L7.4 41.4 14.95 60.9 15.45 60.75 7.9 41.25Z"/>
        <path fill="#FEFEFE" stroke="none" d="M25.5 44.55Q27.4 45.35 29.35 44.6 31.3 43.85 32.15 41.95 32.95 40.05 32.2 38.1 31.5 36.2 29.6 35.3 27.65 34.5 25.7 35.25 23.75 36 22.95 37.9 22.15 39.85 22.85 41.75 23.6 43.7 25.5 44.55Z"/>
        <path fill="#D6D6D5" stroke="none" d="M25.7 35.25L29.35 44.6Q31.3 43.85 32.15 41.95 32.95 40.05 32.2 38.1 31.5 36.2 29.6 35.3 27.65 34.5 25.7 35.25Z"/>
        <path fill="#2B303E" stroke="none" d="M30.9 41.4Q31.55 40 30.95 38.55 30.4 37.15 29.05 36.55 27.65 35.95 26.2 36.5 24.8 37.05 24.2 38.45 23.55 39.85 24.1 41.25 24.7 42.7 26.05 43.3 27.45 43.9 28.85 43.35 30.3 42.8 30.9 41.4Z"/>
        <path fill="#FEFEFE" stroke="none" d="M27.25 40L27.8 39.8 26.5 36.4 25.95 36.6 27.25 40Z"/>
        <path fill="#D6D6D5" stroke="none" d="M25.55 35.05L25.65 35 25.45 34.4 25.35 34.45 25.55 35.05Z"/>
        <path fill="#D6D6D5" stroke="none" d="M22.7 37.9L22.7 37.75 22.15 37.5 22.1 37.6 22.7 37.9Z"/>
        <path fill="#D6D6D5" stroke="none" d="M22.65 41.95L22.6 41.8 22 42 22.05 42.15 22.65 41.95Z"/>
        <path fill="#D6D6D5" stroke="none" d="M25.45 44.75L25.35 44.7 25.1 45.25 25.2 45.3 25.45 44.75Z"/>
        <path fill="#D6D6D5" stroke="none" d="M29.5 44.8L29.4 44.85 29.6 45.45 29.7 45.4 29.5 44.8Z"/>
        <path fill="#D6D6D5" stroke="none" d="M32.4 41.95L32.35 42.05 32.9 42.3 32.95 42.2 32.4 41.95Z"/>
        <path fill="#D6D6D5" stroke="none" d="M32.45 37.9L32.5 38.05 33.05 37.8 33 37.65 32.45 37.9Z"/>
        <path fill="#D6D6D5" stroke="none" d="M29.6 35L29.75 35.1 29.95 34.5 29.85 34.45 29.6 35Z"/>
        <path fill="#C9C9C8" stroke="none" d="M25.95 52.15L30.2 50.5 29.6 49 25.35 50.65 25.95 52.15Z"/>
        <path fill="#C9C9C8" stroke="none" d="M36.35 46.35L32.05 48.05 32.65 49.55 36.95 47.85 36.35 46.35Z"/>
        <path fill="#FEFEFE" stroke="none" d="M82.8 31L98.65 38Q98.8 38.05 98.95 38 99.1 37.95 99.15 37.8 99.3 37.45 98.95 37.3L83.1 30.3Q82.75 30.2 82.6 30.5 82.4 30.9 82.8 31Z"/>
        <path fill="#FEFEFE" stroke="none" d="M85 1.55Q84.7 1.4 84.5 1.75L77.55 17.6Q77.4 17.95 77.75 18.1 77.9 18.2 78.05 18.15 78.15 18.1 78.25 17.9L85.2 2.05Q85.35 1.7 85 1.55Z"/>
        <path fill="#FEFEFE" stroke="none" d="M83.2 23.55L88.8 21.4Q89.1 21.25 89 20.9 88.85 20.55 88.55 20.7L82.95 22.8Q82.6 22.95 82.75 23.35 82.85 23.7 83.2 23.55Z"/>
      </g>
    </g>
    <path fill="#0A9999" stroke="none" d="M271.25 96.35Q271.25 72.45 246.75 55.4 222.2 38.55 187.2 38.55 152.45 38.55 127.95 55.4 125.7 56.95 123.65 58.6 122.95 59.05 122.3 59.5 97.75 76.55 97.75 100.45 97.75 120.05 115.9 136.3 122.75 142.6 122.75 152.6 122.75 162.95 114.1 170.4 128.3 168.45 137.75 160.25 142.7 157.25 146.65 153 163.3 158.25 181.55 158.25 216.55 158.25 241.1 141.4 243.35 139.85 245.4 138.25 246.05 137.75 246.75 137.3 271.25 120.25 271.25 96.35Z"/>
    <g id="BUBBLE" transform="translate(182.75 104.9)">
      <g display="none">
        <g id="Symbol-50" transform="matrix(.074 0 0 .074 -.6 -8.35)">
          <animateTransform attributeName="transform" additive="replace" type="translate" repeatCount="indefinite" dur="9.375s" keyTimes="0;.107;.111;.116;.12;.124;.129;.133;1" values="-.202,-7.552;-.202,-7.552;-.213,-7.609;-.26,-7.563;-.254,-7.558;-.236,-7.553;-.268,-7.594;-.2,-7.55;-.2,-7.55"/>
          <animateTransform attributeName="transform" additive="sum" type="scale" repeatCount="indefinite" dur="9.375s" keyTimes="0;.107;.111;.116;.12;.124;.129;.133;1" values=".074,.074;.074,.074;.228,.228;.383,.383;.537,.537;.691,.691;.846,.846;1,1;1,1"/>
          <animateTransform attributeName="transform" additive="sum" type="translate" repeatCount="indefinite" dur="9.375s" keyTimes="0;.107;.111;.116;.12;.124;.129;.133;1" values="-4.7,-10.1;-4.7,-10.1;-5.2,-10.25;-5.2,-10.55;-5.3,-10.6;-5.3,-10.7;-5.3,-10.65;-5.4,-10.75;-5.4,-10.75"/>
          <path fill="#FEFEFE" stroke="none" d="M19.15 9.55Q19.15 5.6 16.35 2.8 13.5 0 9.55 0 5.6 0 2.8 2.8 0 5.6 0 9.55 0 12.15 1.35 14.4 2.65 16.65 4.9 17.9L5.05 18 5.05 20Q5.05 20.4 5.45 20.4L13.7 20.4Q14.1 20.4 14.1 20L14.1 18 14.2 17.9Q16.5 16.65 17.8 14.4 19.15 12.2 19.15 9.55M15.75 3.4Q18.35 5.95 18.35 9.55 18.35 12.05 17.05 14.15 15.75 16.3 13.5 17.4 13.3 17.5 13.3 17.75L13.3 19.6 5.85 19.6 5.85 17.75Q5.85 17.5 5.65 17.4 3.4 16.3 2.1 14.15 .8 12.05 .8 9.55 .8 5.95 3.4 3.4 5.95 .8 9.55 .8 13.2 .8 15.75 3.4Z"/>
          <path fill="#FEFEFE" stroke="none" d="M5.05 22.2Q5.05 22.6 5.45 22.6L13.7 22.6Q14.1 22.6 14.1 22.2 14.1 21.8 13.7 21.8L5.45 21.8Q5.05 21.8 5.05 22.2Z"/>
          <path fill="#FEFEFE" stroke="none" d="M5.05 24.35Q5.05 24.75 5.45 24.75L13.7 24.75Q14.1 24.75 14.1 24.35 14.1 23.95 13.7 23.95L5.45 23.95Q5.05 23.95 5.05 24.35Z"/>
          <path fill="#FEFEFE" stroke="none" d="M8.5 26.7Q8.8 27 9.25 27L9.9 27Q10.4 27 10.6 26.7 10.85 26.45 10.9 26.2L8.25 26.2 8.5 26.7Z"/>
          <path fill="#FEFEFE" stroke="none" d="M9.15 19.75Q9.15 20.15 9.55 20.15 9.95 20.15 9.95 19.75L9.95 13.95Q9.95 13.55 9.55 13.55 9.15 13.55 9.15 13.95L9.15 19.75Z"/>
          <path fill="#FEFEFE" stroke="none" d="M12.15 11Q11.95 11 11.85 11.1L9.55 13.4 7.3 11.1Q7.2 11 7 11 6.8 11 6.7 11.1L6.6 11.4 6.7 11.65 9.55 14.55 12.45 11.65 12.55 11.4 12.45 11.1Q12.35 11 12.15 11Z"/>
        </g>
        <animate attributeName="display" repeatCount="indefinite" dur="9.375s" keyTimes="0;.107;1" values="none;inline;inline"/>
      </g>
      <g display="none">
        <g id="Symbol-49" transform="matrix(.101 0 0 .101 37.3 17.1)">
          <animateTransform attributeName="transform" additive="replace" type="translate" repeatCount="indefinite" dur="9.375s" keyTimes="0;.173;.178;.182;.187;.191;.196;.2;.204;1" values="38.3,18.05;38.3,18.05;38.297,18.105;38.364,18.067;38.358,18.114;38.337,18.049;38.317,18.095;38.358,18.072;38.3,18.05;38.3,18.05"/>
          <animateTransform attributeName="transform" additive="sum" type="scale" repeatCount="indefinite" dur="9.375s" keyTimes="0;.173;.178;.182;.187;.191;.196;.2;.204;1" values=".1,.1;.1,.1;.229,.229;.357,.357;.486,.486;.614,.614;.743,.743;.871,.871;1,1;1,1"/>
          <animateTransform attributeName="transform" additive="sum" type="translate" repeatCount="indefinite" dur="9.375s" keyTimes="0;.173;.178;.182;.187;.191;.196;.2;.204;1" values="-10.45,-9.95;-10.45,-9.95;-10.25,-9.85;-10.25,-9.7;-10.1,-9.7;-10.15,-9.6;-10.05,-9.55;-10.05,-9.55;-9.95,-9.5;-9.95,-9.5"/>
          <path fill="#FEFEFE" stroke="none" d="M11.7 3.5Q11.7 2.05 10.65 1 9.6 -.05 8.15 -.05 6.7 -.05 5.65 1 4.6 2.05 4.6 3.5 4.6 4.95 5.65 6 6.7 7.05 8.15 7.05 9.6 7.05 10.65 6 11.7 4.95 11.7 3.5M8.15 .75Q9.3 .75 10.1 1.55 10.9 2.4 10.9 3.5 10.9 4.6 10.1 5.4 9.3 6.2 8.15 6.2 7 6.2 6.2 5.4 5.4 4.6 5.4 3.5 5.4 2.4 6.2 1.55 7.05 .75 8.15 .75Z"/>
          <path fill="#FEFEFE" stroke="none" d="M17.85 5.55Q17.1 5.55 16.6 6.05 16.05 6.6 16.05 7.3 16.05 8.05 16.6 8.55 17.1 9.05 17.85 9.05 18.55 9.05 19.1 8.55 19.6 8.05 19.6 7.3 19.6 6.6 19.1 6.05 18.55 5.55 17.85 5.55M18.5 8Q18.25 8.25 17.85 8.25 17.45 8.25 17.15 8 16.85 7.7 16.85 7.3 16.85 6.9 17.15 6.6 17.45 6.35 17.85 6.35 18.25 6.35 18.5 6.6 18.8 6.9 18.8 7.3 18.8 7.7 18.5 8Z"/>
          <path fill="#FEFEFE" stroke="none" d="M16.7 15.75Q16 16.5 16 17.45 16 18.4 16.7 19.1 17.4 19.8 18.4 19.8 19.4 19.8 20.05 19.1 20.75 18.45 20.75 17.45 20.75 16.45 20.05 15.75 19.35 15.05 18.4 15.05 17.45 15.05 16.7 15.75M16.8 17.45Q16.8 16.8 17.25 16.35 17.75 15.85 18.4 15.85 19.05 15.85 19.5 16.35 19.95 16.8 19.95 17.45 19.95 18.1 19.5 18.55 19.05 19 18.4 19 17.75 19 17.25 18.55 16.8 18.1 16.8 17.45Z"/>
          <path fill="#FEFEFE" stroke="none" d="M5.3 11.45Q4.2 11.45 3.45 12.25 2.7 13 2.7 14.1 2.7 15.2 3.45 15.95 4.2 16.7 5.3 16.7 6.4 16.7 7.15 15.95 7.95 15.2 7.95 14.1 7.95 13 7.15 12.25 6.4 11.45 5.3 11.45M6.6 12.85Q7.15 13.35 7.15 14.1 7.15 14.85 6.6 15.4 6.05 15.9 5.3 15.9 4.55 15.9 4.05 15.4 3.5 14.85 3.5 14.1 3.5 13.35 4.05 12.85 4.55 12.3 5.3 12.3 6.05 12.3 6.6 12.85Z"/>
          <path fill="#FEFEFE" stroke="none" d="M2.7 5.45Q2.7 4.9 2.3 4.5 1.9 4.1 1.35 4.1 .8 4.1 .4 4.5 0 4.9 0 5.45 0 6 .4 6.4 .8 6.8 1.35 6.8 1.9 6.8 2.3 6.4 2.7 6 2.7 5.45M.8 5.45Q.8 4.9 1.35 4.9 1.9 4.9 1.9 5.45 1.9 6 1.35 6 .8 6 .8 5.45Z"/>
          <path fill="#FEFEFE" stroke="none" d="M5.85 12.4L5.95 12.4Q6.25 12.4 6.3 12.1L7.75 6.65Q7.85 6.3 7.45 6.2 7.1 6.1 6.95 6.45L5.55 11.9Q5.45 12.3 5.85 12.4Z"/>
          <path fill="#FEFEFE" stroke="none" d="M1.9 5.25Q2 5.55 2.25 5.55L2.35 5.55 5.25 4.7Q5.65 4.6 5.5 4.25 5.4 3.85 5.05 3.95L2.15 4.75Q1.7 4.85 1.9 5.25Z"/>
          <path fill="#FEFEFE" stroke="none" d="M16.95 16.1L17.25 16.25 17.5 16.2Q17.8 16 17.6 15.6L10.35 5.8Q10.05 5.45 9.8 5.7 9.45 5.9 9.7 6.25L16.95 16.1Z"/>
          <path fill="#FEFEFE" stroke="none" d="M16.4 7.2L16.55 7.2Q16.8 7.2 16.95 6.95 17.05 6.55 16.7 6.45L11.25 4.3Q10.85 4.15 10.7 4.55 10.6 4.9 10.95 5.05L16.4 7.2Z"/>
        </g>
        <animate attributeName="display" repeatCount="indefinite" dur="9.375s" keyTimes="0;.173;1" values="none;inline;inline"/>
      </g>
      <g display="none">
        <g id="Symbol-48" transform="matrix(.09 0 0 .09 -49.25 -14.1)">
          <animateTransform attributeName="transform" additive="replace" type="translate" repeatCount="indefinite" dur="9.375s" keyTimes="0;.244;.249;.253;.258;.262;.267;.271;.276;.28;1" values="-48.105,-13.104;-48.105,-13.104;-48.098,-13.105;-48.159,-13.101;-48.106,-13.118;-48.158,-13.134;-48.131,-13.168;-48.165,-13.14;-48.089,-13.19;-48.1,-13.1;-48.1,-13.1"/>
          <animateTransform attributeName="transform" additive="sum" type="scale" repeatCount="indefinite" dur="9.375s" keyTimes="0;.244;.249;.253;.258;.262;.267;.271;.276;.28;1" values=".09,.09;.09,.09;.204,.204;.318,.318;.432,.432;.545,.545;.659,.659;.773,.773;.886,.886;1,1;1,1"/>
          <animateTransform attributeName="transform" additive="sum" type="translate" repeatCount="indefinite" dur="9.375s" keyTimes="0;.244;.249;.253;.258;.262;.267;.271;.276;.28;1" values="-12.1,-10.45;-12.1,-10.45;-12.5,-10.75;-12.4,-10.85;-12.5,-10.85;-12.55,-10.85;-12.55,-10.9;-12.6,-10.95;-12.65,-10.9;-12.65,-11.05;-12.65,-11.05"/>
          <path fill="#D0EE10" stroke="none" d="M25.8 7.1L25.8 0 0 0 0 15.55 2.55 15.55 2.55 19.6 6.6 15.55 14.25 15.55 14.25 7.1 25.8 7.1Z"/>
          <path fill="#FEFEFE" stroke="none" d="M31.5 7.1L25.8 7.1 25.8 15.55 14.25 15.55 14.25 19.05 25.5 19.05 28.55 22.1 28.55 19.05 31.5 19.05 31.5 7.1Z"/>
          <path fill="#2B303E" stroke="none" d="M15.85 9.7L24.25 9.7 24.25 8.8 15.85 8.8 15.85 9.7Z"/>
          <path fill="#2B303E" stroke="none" d="M15.85 11.75L24.25 11.75 24.25 10.9 15.85 10.9 15.85 11.75Z"/>
          <path fill="#2B303E" stroke="none" d="M20 13.85L24.2 13.85 24.2 13 20 13 20 13.85Z"/>
        </g>
        <animate attributeName="display" repeatCount="indefinite" dur="9.375s" keyTimes="0;.244;1" values="none;inline;inline"/>
      </g>
      <g display="none">
        <g id="Symbol-47" transform="matrix(.102 0 0 .102 -3.75 24.85)">
          <animateTransform attributeName="transform" additive="replace" type="translate" repeatCount="indefinite" dur="9.375s" keyTimes="0;.307;.311;.316;.32;.324;.329;.333;.338;.342;1" values="-2.904,25.453;-2.904,25.453;-2.947,25.5;-2.955,25.508;-2.902,25.504;-2.954,25.511;-2.962,25.513;-2.963,25.514;-2.971,25.437;-2.9,25.45;-2.9,25.45"/>
          <animateTransform attributeName="transform" additive="sum" type="scale" repeatCount="indefinite" dur="9.375s" keyTimes="0;.307;.311;.316;.32;.324;.329;.333;.338;.342;1" values=".102,.102;.102,.102;.214,.214;.326,.326;.439,.439;.551,.551;.663,.663;.775,.775;.888,.888;1,1;1,1"/>
          <animateTransform attributeName="transform" additive="sum" type="translate" repeatCount="indefinite" dur="9.375s" keyTimes="0;.307;.311;.316;.32;.324;.329;.333;.338;.342;1" values="-7.8,-6.4;-7.8,-6.4;-7.95,-6.3;-8.1,-6.15;-8.2,-6.05;-8.25,-6.1;-8.2,-6.05;-8.3,-5.95;-8.2,-5.9;-8.35,-5.9;-8.35,-5.9"/>
          <path fill="#FEFEFE" stroke="none" d="M19.2 8.55Q19.55 8.2 19.55 7.65 19.55 7.15 19.2 6.8 18.8 6.45 18.35 6.45L14.95 6.45 14.95 8.9 18.35 8.9Q18.85 8.9 19.2 8.55Z"/>
          <path fill="#DBDADA" stroke="none" d="M14.95 6.45L14.95 8.9 16.3 8.9Q16.55 7.75 16.3 6.45L14.95 6.45Z"/>
          <path fill="#FEFEFE" stroke="none" d="M1.05 3.9Q-.55 6.65 .3 9.7 1.2 12.75 3.9 14.35 6.65 15.95 9.75 15.1 12.8 14.2 14.4 11.5 16 8.75 15.15 5.65 14.25 2.6 11.55 1 8.8 -.55 5.7 .25 2.65 1.15 1.05 3.9Z"/>
          <path fill="#DF7942" stroke="none" d="M13.3 10.9Q14.65 8.55 13.95 6 13.25 3.4 10.95 2.1 8.6 .75 6 1.45 3.45 2.15 2.15 4.45 .8 6.8 1.5 9.4 2.2 11.95 4.5 13.25 6.85 14.6 9.45 13.9 12 13.2 13.3 10.9Z"/>
          <path fill="#C65A25" stroke="none" d="M3.75 10.7Q3.05 8.1 4.4 5.75 5.7 3.45 8.25 2.75 10.2 2.25 12 2.85 10.8 1.75 9.25 1.45 7.6 1 6 1.45 3.45 2.15 2.15 4.45 .8 6.8 1.5 9.4 1.95 11 3.1 12.2 4.2 13.3 5.7 13.8 4.3 12.5 3.75 10.7Z"/>
        </g>
        <animate attributeName="display" repeatCount="indefinite" dur="9.375s" keyTimes="0;.307;1" values="none;inline;inline"/>
      </g>
      <g display="none">
        <g id="Symbol-46" transform="matrix(.096 0 0 -.096 -43.95 18.05)">
          <animateTransform attributeName="transform" additive="replace" type="translate" repeatCount="indefinite" dur="9.375s" keyTimes="0;.373;.378;.382;.387;.391;.396;.4;.404;.409;1" values="-43.205,17.55;-43.205,17.55;-43.203,17.55;-43.218,17.555;-43.222,17.563;-43.207,17.518;-43.276,17.512;-43.279,17.497;-43.27,17.524;-43.2,17.55;-43.2,17.55"/>
          <animateTransform attributeName="transform" additive="sum" type="rotate" repeatCount="indefinite" dur="9.375s" keyTimes="0;.373;.378;1" values="180,0,0;180,0,0;0,0,0;0,0,0"/>
          <animateTransform attributeName="transform" additive="sum" type="skewY" repeatCount="indefinite" dur="9.375s" keyTimes="0;.373;.378;1" values="-180;-180;0;0"/>
          <animateTransform attributeName="transform" additive="sum" type="scale" repeatCount="indefinite" dur="9.375s" keyTimes="0;.373;.378;.382;.387;.391;.396;.4;.404;.409;1" values=".096,.096;.096,.096;.209,.041;.322,.178;.435,.315;.548,.452;.661,.589;.774,.726;.887,.863;1,1;1,1"/>
          <animateTransform attributeName="transform" additive="sum" type="scale" repeatCount="indefinite" dur="9.375s" keyTimes="0;.373;.376;.378;1" values="-1,1;-1,1;0,1;1,1;1,1" keySplines="0 0 1 1;0 0 1 1;.25 .5 .5 1;0 0 1 1" calcMode="spline"/>
          <animateTransform attributeName="transform" additive="sum" type="translate" repeatCount="indefinite" dur="9.375s" keyTimes="0;.373;.378;.382;.387;.391;.396;.4;.404;.409;1" values="-7.75,-5.2;-7.75,-5.2;-7.4,-7.35;-7.55,-5.65;-7.65,-5.6;-7.65,-5.35;-7.6,-5.2;-7.65,-5.3;-7.7,-5.3;-7.75,-5.25;-7.75,-5.25"/>
          <path fill="#FEFEFE" stroke="none" d="M10.25 3.65L14.25 10.6Q14.35 10.8 14.6 10.8 14.75 10.8 14.95 10.6L19.45 2.7 18.8 2.3 14.6 9.6 10.55 2.65Q10.5 2.45 10.25 2.45 10 2.45 9.9 2.65L5.85 9.6 3.9 6.2Q3.8 6 3.55 6 3.3 6 3.2 6.2L1.35 9.4 2.05 9.8 3.55 7.2 5.55 10.6Q5.65 10.8 5.9 10.8 6.15 10.8 6.2 10.6L10.25 3.65Z"/>
          <path fill="#FEFEFE" stroke="none" d="M20.35 3.6L20.55 3.55Q20.75 3.45 20.75 3.2L20.75 .4Q20.75 .25 20.55 .05 20.3 -.05 20.15 .05L17.7 1.45Q17.5 1.65 17.5 1.8 17.5 2.05 17.7 2.15L20.15 3.55 20.35 3.6M18.7 1.8L19.95 1.1 19.95 2.5 18.7 1.8Z"/>
          <path fill="#FEFEFE" stroke="none" d="M.35 11.3Q.75 11.7 1.3 11.7 1.85 11.7 2.2 11.3 2.6 10.95 2.6 10.4 2.6 9.85 2.2 9.45 1.85 9.1 1.3 9.1 .75 9.1 .35 9.45 0 9.85 0 10.4 0 10.95 .35 11.3M.8 10.4Q.8 9.9 1.3 9.9 1.8 9.9 1.8 10.4 1.8 10.9 1.3 10.9 .8 10.9 .8 10.4Z"/>
        </g>
        <animate attributeName="display" repeatCount="indefinite" dur="9.375s" keyTimes="0;.373;1" values="none;inline;inline"/>
      </g>
      <g display="none">
        <g id="Symbol-45" transform="matrix(.084 0 0 -.084 44.95 -16.25)">
          <animateTransform attributeName="transform" additive="replace" type="translate" repeatCount="indefinite" dur="9.375s" keyTimes="0;.444;.449;.453;.458;.462;.467;.471;.476;.48;.484;1" values="46.252,-17.254;46.252,-17.254;46.263,-17.251;46.307,-17.254;46.312,-17.248;46.261,-17.247;46.328,-17.211;46.321,-17.246;46.234,-17.205;46.312,-17.272;46.25,-17.25;46.25,-17.25"/>
          <animateTransform attributeName="transform" additive="sum" type="rotate" repeatCount="indefinite" dur="9.375s" keyTimes="0;.444;.449;1" values="180,0,0;180,0,0;0,0,0;0,0,0"/>
          <animateTransform attributeName="transform" additive="sum" type="skewY" repeatCount="indefinite" dur="9.375s" keyTimes="0;.444;.449;1" values="-180;-180;0;0"/>
          <animateTransform attributeName="transform" additive="sum" type="scale" repeatCount="indefinite" dur="9.375s" keyTimes="0;.444;.449;.453;.458;.462;.467;.471;.476;.48;.484;1" values=".084,.084;.084,.084;.186,.036;.288,.157;.389,.277;.491,.398;.593,.518;.695,.639;.796,.759;.898,.88;1,1;1,1"/>
          <animateTransform attributeName="transform" additive="sum" type="scale" repeatCount="indefinite" dur="9.375s" keyTimes="0;.444;.447;.449;1" values="-1,1;-1,1;0,1;1,1;1,1" keySplines="0 0 1 1;0 0 1 1;.25 .5 .5 1;0 0 1 1" calcMode="spline"/>
          <animateTransform attributeName="transform" additive="sum" type="translate" repeatCount="indefinite" dur="9.375s" keyTimes="0;.444;.449;.453;.458;.462;.467;.471;.476;.48;.484;1" values="-15.5,-11.95;-15.5,-11.95;-15.95,-9.6;-15.85,-11.45;-15.7,-11.55;-15.6,-11.7;-15.65,-11.75;-15.65,-11.75;-15.55,-11.85;-15.6,-11.8;-15.5,-11.9;-15.5,-11.9"/>
          <path fill="#3B404A" stroke="none" d="M30.7 2.8L0 2.8 0 22.4 30.7 22.4 30.7 2.8Z"/>
          <path fill="#4B4F59" stroke="none" d="M30.7 6.6L0 6.6 0 22.4 30.7 22.4 30.7 6.6Z"/>
          <path fill="#3B404A" stroke="none" d="M30.7 20.25L0 20.25 0 20.95 30.7 20.95 30.7 20.25Z"/>
          <path fill="#4B4F59" stroke="none" d="M18.75 0L12.05 0 9.05 2.8 21.75 2.8 18.75 0Z"/>
          <path fill="#3B404A" stroke="none" d="M24.65 9.45L29.3 9.45 29.3 7.6 24.65 7.6 24.65 9.45Z"/>
          <path fill="#3B404A" stroke="none" d="M3.15 2.8L5.9 2.8 5.9 2.05 3.15 2.05 3.15 2.8Z"/>
          <path fill="#FEFEFE" stroke="none" d="M2.95 5.15Q3.15 4.95 3.15 4.7 3.15 4.45 2.95 4.25 2.75 4.05 2.5 4.05 2.2 4.05 2 4.25 1.8 4.45 1.8 4.7 1.8 4.95 2 5.15 2.2 5.35 2.5 5.35 2.75 5.35 2.95 5.15Z"/>
          <path fill="#3B404A" stroke="none" d="M0 7.6L0 19.25 3.15 19.25 3.15 7.6 0 7.6Z"/>
          <path fill="#3B404A" stroke="none" d="M21.05 21.4Q23.45 19.05 23.45 15.7 23.45 12.3 21.05 9.95 18.7 7.6 15.35 7.6 12 7.6 9.65 9.95 7.25 12.3 7.25 15.7 7.25 19.05 9.65 21.4 12 23.75 15.35 23.75 18.7 23.75 21.05 21.4Z"/>
          <path fill="#4B4F59" stroke="none" d="M19.95 20.3Q21.85 18.35 21.85 15.7 21.85 13 19.95 11.1 18.05 9.2 15.35 9.2 12.65 9.2 10.75 11.1 8.85 13 8.85 15.7 8.85 18.35 10.75 20.3 12.65 22.15 15.35 22.15 18.05 22.15 19.95 20.3Z"/>
          <path fill="#96CADB" stroke="none" d="M19.3 19.65Q20.95 18 20.95 15.7 20.95 13.35 19.3 11.7 17.65 10.05 15.35 10.05 13.05 10.05 11.4 11.7 9.75 13.35 9.75 15.7 9.75 18 11.4 19.65 13.05 21.3 15.35 21.3 17.65 21.3 19.3 19.65Z"/>
          <path fill="#C0E7F5" stroke="none" d="M18.25 18.6Q19.5 17.4 19.5 15.7 19.5 13.95 18.25 12.75 17.05 11.55 15.35 11.55 13.65 11.55 12.4 12.75 11.2 13.95 11.2 15.7 11.2 17.4 12.4 18.6 13.65 19.8 15.35 19.8 17.05 19.8 18.25 18.6Z"/>
          <path fill="#FEFEFE" stroke="none" d="M15.85 16.15Q16.05 15.95 16.05 15.7 16.05 15.4 15.85 15.2 15.65 15 15.35 15 15.05 15 14.85 15.2 14.65 15.4 14.65 15.7 14.65 15.95 14.85 16.15 15.05 16.35 15.35 16.35 15.65 16.35 15.85 16.15Z"/>
          <path fill="#FEFEFE" stroke="none" d="M13.05 14.95Q13.7 14.95 14.2 14.5 14.65 14.05 14.65 13.4 14.65 12.75 14.2 12.3 13.7 11.85 13.05 11.85 12.4 11.85 11.95 12.3 11.5 12.75 11.5 13.4 11.5 14.05 11.95 14.5 12.4 14.95 13.05 14.95Z"/>
        </g>
        <animate attributeName="display" repeatCount="indefinite" dur="9.375s" keyTimes="0;.444;1" values="none;inline;inline"/>
      </g>
      <g display="none">
        <g id="Symbol-44" transform="matrix(.109 0 0 .109 -6.7 -45.85)">
          <animateTransform attributeName="transform" additive="replace" type="translate" repeatCount="indefinite" dur="9.375s" keyTimes="0;.511;.516;.52;.524;.529;.533;.538;.542;.547;.551;.556;1" values="-5.749,-45.151;-5.749,-45.151;-5.804,-45.15;-5.757,-45.154;-5.75,-45.166;-5.816,-45.167;-5.808,-45.156;-5.764,-45.195;-5.798,-45.22;-5.823,-45.223;-5.816,-45.211;-5.75,-45.15;-5.75,-45.15"/>
          <animateTransform attributeName="transform" additive="sum" type="scale" repeatCount="indefinite" dur="9.375s" keyTimes="0;.511;.516;.52;.524;.529;.533;.538;.542;.547;.551;.556;1" values=".109,.109;.109,.109;.198,.198;.287,.287;.376,.376;.466,.466;.555,.555;.644,.644;.733,.733;.822,.822;.911,.911;1,1;1,1"/>
          <animateTransform attributeName="transform" additive="sum" type="translate" repeatCount="indefinite" dur="9.375s" keyTimes="0;.511;.516;.52;.524;.529;.533;.538;.542;.547;.551;.556;1" values="-8.7,-6.4;-8.7,-6.4;-8.3,-6.05;-8.5,-6.25;-8.5,-6.2;-8.45,-6.3;-8.55,-6.3;-8.6,-6.3;-8.6,-6.25;-8.55,-6.3;-8.6,-6.3;-8.7,-6.4;-8.7,-6.4"/>
          <path fill="#FEFEFE" stroke="none" d="M1.9 6.6L0 7.2 1.9 7.75 1.9 6.6Z"/>
          <path fill="#C9C9C8" stroke="none" d="M0 7.2L1.9 7.75 1.9 7.4 0 7.2Z"/>
          <path fill="#4B4F59" stroke="none" d="M1.9 7.75L14.65 7.75 14.65 6.6 1.9 6.6 1.9 7.75Z"/>
          <path fill="#2B313A" stroke="none" d="M1.9 7.75L14.65 7.75 14.65 7.4 1.9 7.4 1.9 7.75Z"/>
          <path fill="#4B4F59" stroke="none" d="M.75 6.95L0 7.2 .75 7.4 .75 6.95Z"/>
          <path fill="#2B313A" stroke="none" d="M0 7.2L.75 7.4 .75 7.25 0 7.2Z"/>
          <path fill="#FEFEFE" stroke="none" d="M15.35 7.75L15.35 6.6 14.65 6.6 14.65 7.75 15.35 7.75Z"/>
          <path fill="#C9C9C8" stroke="none" d="M15.35 7.75L15.35 7.4 14.65 7.4 14.65 7.75 15.35 7.75Z"/>
          <path fill="#DA8458" stroke="none" d="M16.3 7.2Q16.3 6.95 16.15 6.75 15.95 6.6 15.7 6.6L15.35 6.6 15.35 7.75 15.7 7.75Q15.95 7.75 16.15 7.6 16.3 7.45 16.3 7.2Z"/>
          <path fill="#CF7042" stroke="none" d="M15.95 6.8Q15.95 7.05 15.75 7.25 15.6 7.4 15.35 7.4L15.35 7.75 15.7 7.75Q15.95 7.75 16.15 7.6 16.3 7.45 16.3 7.2 16.3 6.95 16.15 6.75 16 6.65 15.9 6.65 15.95 6.75 15.95 6.8Z"/>
          <path fill="#3B404A" stroke="none" d="M7.1 12.3L7.1 18.25 8.4 18.25 8.4 12.3 7.1 12.3Z"/>
          <path fill="#3B404A" stroke="none" d="M13.65 12.3L13.65 18.25 15 18.25 15 12.3 13.65 12.3Z"/>
          <path fill="#3B404A" stroke="none" d="M13.65 15.2L8.4 15.2 8.4 15.9 13.65 15.9 13.65 15.2Z"/>
          <path fill="#DA8458" stroke="none" d="M5.95 12.25Q8.05 14.35 11.05 14.35 14 14.35 16.1 12.25 18.2 10.15 18.2 7.2 18.2 4.2 16.1 2.1 14 0 11.05 0 8.05 0 5.95 2.1 3.85 4.2 3.85 7.2 3.85 10.15 5.95 12.25Z"/>
          <path fill="#F2DB7C" stroke="none" d="M14.45 3.8Q13 2.4 11.05 2.4 9.05 2.4 7.65 3.8 6.25 5.2 6.25 7.2 6.25 9.15 7.65 10.55 9.05 11.95 11.05 11.95 13 11.95 14.45 10.55 15.85 9.15 15.85 7.2 15.85 5.2 14.45 3.8Z"/>
          <path fill="#FEFEFE" stroke="none" d="M12.75 5.5Q12.05 4.8 11.05 4.8 10.05 4.8 9.35 5.5 8.65 6.2 8.65 7.2 8.65 8.2 9.35 8.9 10.05 9.6 11.05 9.6 12.05 9.6 12.75 8.9 13.45 8.2 13.45 7.2 13.45 6.2 12.75 5.5Z"/>
          <g id="flash0.ai-Elemente_Isolationsmodus_.__3CPath.__3E" transform="matrix(.142 0 0 .142 10.35 6.5)">
            <path fill="#D6D6D5" stroke="none" d="M6.95 1.2Q5.75 0 4.05 0 2.35 0 1.2 1.2 .1 2.3 0 3.9 -.1 5.45 .9 6.65L36.7 42.5Q39.8 39.8 42.5 36.7L6.95 1.2Z"/>
          </g>
          <g id="flash0.ai-Elemente_Isolationsmodus_.__3CClip-Group.__3E" transform="matrix(.142 0 0 .142 5.8 6.5)">
            <g mask="url(#mask_)" id="Layer99_0_FILL">
              <path fill="#FEFEFE" stroke="none" d="M0 4.05L13.45 8.15 13.45 0 0 4.05Z"/>
              <path fill="#C9C9C8" stroke="none" d="M0 4.05L13.45 8.15 13.45 5.6 0 4.05Z"/>
              <path fill="#4B4F59" stroke="none" d="M103 8.15L103 0 13.45 0 13.45 8.15 103 8.15Z"/>
              <path fill="#2B313A" stroke="none" d="M103 8.15L103 5.6 13.45 5.6 13.45 8.15 103 8.15Z"/>
              <path fill="#4B4F59" stroke="none" d="M0 4.05L5.25 5.7 5.25 2.45 0 4.05Z"/>
              <path fill="#2B313A" stroke="none" d="M0 4.05L5.25 5.7 5.25 4.7 0 4.05Z"/>
              <path fill="#FEFEFE" stroke="none" d="M107.75 8.15L107.75 0 103 0 103 8.15 107.75 8.15Z"/>
              <path fill="#C9C9C8" stroke="none" d="M107.75 8.15L107.75 5.6 103 5.6 103 8.15 107.75 8.15Z"/>
              <path fill="#DA8458" stroke="none" d="M110.35 8.15Q112 8.15 113.2 6.95 114.45 5.8 114.45 4.05 114.45 2.45 113.2 1.2 112 0 110.35 0L107.75 0 107.75 8.15 110.35 8.15Z"/>
              <path fill="#CF7042" stroke="none" d="M111.65 .2Q111.85 1.1 111.85 1.5 111.85 3.2 110.65 4.4 109.45 5.6 107.75 5.6L107.75 8.15 110.35 8.15Q112 8.15 113.2 6.95 114.45 5.8 114.45 4.05 114.45 2.45 113.2 1.2 112.5 .5 111.65 .2Z"/>
            </g>
            <mask id="mask_">
              <g>
                <g id="Layer98_0_FILL">
                  <path fill="#FFF" stroke="none" d="M114.45 8.15L114.45 0 36.95 0Q35.25 0 34.05 1.2 32.85 2.4 32.85 4.1 32.85 5.8 34.05 7 35.25 8.2 36.95 8.2L37.1 8.15 114.45 8.15Z" fill-opacity="1"/>
                </g>
              </g>
            </mask>
          </g>
        </g>
        <animate attributeName="display" repeatCount="indefinite" dur="9.375s" keyTimes="0;.511;1" values="none;inline;inline"/>
      </g>
      <g display="none">
        <g id="Symbol-43" transform="matrix(.019 0 0 .019 2.05 -8.8)">
          <animateTransform attributeName="transform" additive="replace" type="translate" repeatCount="indefinite" dur="9.375s" keyTimes="0;.933;.938;.942;.947;.951;.956;.96;.964;.969;.973;.978;.982;.987;.991;.996;1" values="3.501,-8.15;3.501,-8.15;3.2,-9.55;2.798,-11.008;2.495,-12.408;2.081,-13.762;1.777,-15.201;1.396,-16.596;1.071,-18.028;.726,-19.409;.379,-20.809;.032,-22.238;-.324,-23.537;-.668,-25.045;-1.056,-26.426;-1.451,-27.801;-1.451,-27.801"/>
          <animateTransform attributeName="transform" additive="sum" type="scale" repeatCount="indefinite" dur="9.375s" keyTimes="0;.933;.938;.942;.947;.951;.956;.96;.964;.969;.973;.978;.982;.987;.991;.996;1" values=".019,.019;.019,.019;.089,.089;.159,.159;.229,.229;.299,.299;.369,.369;.439,.439;.51,.51;.58,.58;.65,.65;.72,.72;.79,.79;.86,.86;.93,.93;1,1;1,1"/>
          <animateTransform attributeName="transform" additive="sum" type="translate" repeatCount="indefinite" dur="9.375s" keyTimes="0;.933;.938;.942;.947;.951;.956;.96;.964;.969;.973;.978;.982;.987;.991;.996;1" values="-78.55,-31.4;-78.55,-31.4;-75.15,-33.65;-75.35,-33.55;-75.65,-33.55;-75.6,-33.7;-75.6,-33.7;-75.65,-33.8;-75.7,-33.8;-75.7,-33.8;-75.7,-33.85;-75.7,-33.85;-75.75,-33.95;-75.75,-33.85;-75.7,-33.9;-75.8,-34;-75.8,-34"/>
          <path fill="#0A9999" stroke="none" d="M137.2 89.1Q160.7 73.85 160.7 52.25 160.7 30.65 137.2 15.3 113.65 0 80.35 0 47.1 0 23.55 15.3 0 30.65 0 52.25 0 73.85 23.55 89.1 47.1 104.45 80.35 104.45 113.65 104.45 137.2 89.1Z"/>
        </g>
        <animate attributeName="display" repeatCount="indefinite" dur="9.375s" keyTimes="0;.933;1" values="none;inline;inline"/>
      </g>
    </g>
    <g id="Symbol-40" transform="matrix(1.212 0 0 1.212 46.75 324.15)">
      <g id="Symbol-42" transform="matrix(.398 0 0 .398 -4.7 0)">
        <animateTransform attributeName="transform" additive="replace" type="translate" dur="5.833s" keyTimes="0;1" values="0,0;0,0" fill="freeze"/>
        <animateTransform attributeName="transform" additive="sum" type="translate" repeatCount="indefinite" dur="5.833s" keyTimes="0;.007;.014;.021;.029;.036;.043;.05;.057;.064;.071;.079;.086;.093;.1;.107;.114;.121;.129;.136;.143;.15;.157;.164;.171;.179;.186;.193;.199;.19999;.2;1" values="5.04,4.159;30.62,-5.029;56.126,-14.373;76.453,-22.656;96.653,-31.008;111.462,-42.891;126.218,-54.712;139.469,-69.051;152.742,-83.333;159.058,-102.802;165.253,-122.266;166.482,-131.937;167.639,-141.569;165.617,-156.913;163.601,-172.277;159.558,-184.095;155.657,-195.906;147.196,-203.58;138.772,-211.177;122.563,-215.008;106.395,-218.891;99.315,-218.775;92.224,-218.549;85.086,-218.514;78.009,-218.323;67.633,-216.327;57.15,-214.354;49.273,-209.429;41.263,-204.548;38.932,-200.368;0;0"/>
        <animateTransform attributeName="transform" additive="sum" type="translate" repeatCount="indefinite" dur="5.833s" keyTimes="0;.19999;.2;.207;.214;.221;.229;.236;.243;.25;.257;.264;.271;.279;.286;.293;.3;.307;.314;.321;.329;.336;.343;.35;.357;.364;.371;.379;.385;.38599;.386;1" values="0;0;41.263,-204.548;38.932,-200.368;36.597,-196.195;34.136,-192.087;31.826,-187.963;31.513,-179.627;31.254,-171.427;32.764,-163.846;34.283,-156.289;38.8,-148.916;43.314,-141.456;50.468,-135.181;57.651,-128.739;68.464,-122.954;79.316,-117.124;90.466,-116.071;101.586,-115.058;115.824,-116.975;130.04,-118.861;135.206,-120.156;140.444,-121.289;145.576,-122.495;150.702,-123.714;156.373,-126.459;162.041,-129.13;167.668,-131.825;173.326,-134.533;181.874,-139.322;0;0"/>
        <animateTransform attributeName="transform" additive="sum" type="translate" repeatCount="indefinite" dur="5.833s" keyTimes="0;.38599;.386;.393;.4;.407;.414;.421;.429;.436;.443;1" values="0;0;173.326,-134.533;181.874,-139.322;190.388,-144.114;200.972,-151.412;211.507,-158.63;224.801,-166.43;238.039,-174.24;251.217,-182.151;264.492,-189.889;264.492,-189.889"/>
        <animateTransform attributeName="transform" additive="sum" type="rotate" repeatCount="indefinite" dur="5.833s" keyTimes="0;.007;.014;.021;.029;.036;.043;.05;.057;.064;.071;.079;.086;.093;.1;.107;.114;.121;.129;.136;.143;.15;.157;.164;.171;.179;.186;.193;.199;.19999;.2;1" values="0,0,0;-3.012,0,0;-6.025,0,0;-9.041,0,0;-12.058,0,0;-15.249,0,0;-18.28,0,0;-29.58,0,0;-40.889,0,0;-58.422,0,0;-75.937,0,0;-73.202,0,0;-70.463,0,0;-81.478,0,0;-92.289,0,0;-102.781,0,0;-113.287,0,0;-128.362,0,0;-143.635,0,0;-153.186,0,0;-162.731,0,0;-164.197,0,0;-165.474,0,0;-171.988,0,0;-178.496,0,0;-184,0,0;-191.511,0,0;-200.274,0,0;-209.047,0,0;-217.823,0,0;0;0"/>
        <animateTransform attributeName="transform" additive="sum" type="rotate" repeatCount="indefinite" dur="5.833s" keyTimes="0;.19999;.2;.207;.214;.221;.229;.236;.243;.25;.257;.264;.271;.279;.286;.293;.3;.307;.314;.321;.329;.336;.343;.35;.357;.364;.371;.379;.385;.38599;.386;1" values="0;0;-209.047,0,0;-217.823,0,0;-226.601,0,0;-233.153,0,0;-239.894,0,0;-246.443,0,0;-253.174,0,0;-262.995,0,0;-272.802,0,0;-276.306,0,0;-279.809,0,0;-283.317,0,0;-286.826,0,0;-296.344,0,0;-305.872,0,0;-318.894,0,0;-331.913,0,0;-337.696,0,0;-343.473,0,0;-348.957,0,0;-354.25,0,0;-356.459,0,0;-358.485,0,0;-360.506,0,0;-362.529,0,0;-368.781,0,0;-375.04,0,0;-372.292,0,0;0;0"/>
        <animateTransform attributeName="transform" additive="sum" type="rotate" repeatCount="indefinite" dur="5.833s" keyTimes="0;.38599;.386;.393;.4;.407;.414;.421;.429;1" values="0;0;-375.04,0,0;-372.292,0,0;-369.547,0,0;-369.552,0,0;-369.554,0,0;-358.973,0,0;-348.198,0,0;-348.198,0,0"/>
        <animateTransform attributeName="transform" additive="sum" type="scale" repeatCount="indefinite" dur="5.833s" keyTimes="0;.007;.014;.021;.029;.036;.043;.05;.057;.064;.071;.086;.093;.1;.107;.114;.121;.129;.136;.157;.164;.171;.179;.186;.193;.199;.19999;.2;1" values=".398,.398;.444,.444;.491,.491;.537,.537;.583,.583;.595,.595;.605,.605;.616,.616;.627,.627;.638,.638;.65,.65;.65,.65;.651,.651;.651,.651;.65,.65;.65,.65;.649,.649;.649,.649;.65,.65;.65,.65;.657,.657;.664,.664;.67,.67;.676,.676;.681,.681;.687,.687;.693,.693;1;1"/>
        <animateTransform attributeName="transform" additive="sum" type="scale" repeatCount="indefinite" dur="5.833s" keyTimes="0;.19999;.2;.207;.214;.221;.229;.236;.243;.25;.257;.264;.271;.279;.286;.293;.3;.307;.314;.321;.329;.336;.343;.35;.357;.364;.371;.379;.385;.38599;.386;1" values="1;1;.687,.687;.693,.693;.699,.699;.706,.706;.712,.712;.719,.719;.725,.725;.732,.732;.739,.739;.745,.745;.751,.751;.757,.757;.763,.763;.768,.768;.774,.774;.78,.78;.787,.787;.794,.794;.8,.8;.807,.807;.814,.814;.82,.82;.827,.827;.833,.833;.839,.839;.845,.845;.85,.85;.857,.857;1;1"/>
        <animateTransform attributeName="transform" additive="sum" type="scale" repeatCount="indefinite" dur="5.833s" keyTimes="0;.38599;.386;.393;.4;.407;.414;.421;.429;.436;.443;1" values="1;1;.85,.85;.857,.857;.863,.863;.87,.87;.876,.876;.883,.883;.888,.888;.894,.894;.901,.901;.901,.901"/>
        <animateTransform attributeName="transform" additive="sum" type="translate" repeatCount="indefinite" dur="5.833s" keyTimes="0;.007;.014;.021;.029;.036;.043;.05;.057;.064;.071;.079;.086;.093;.1;.107;.114;.121;.129;.136;.143;.15;.157;.164;.171;.179;.186;.193;.199;.19999;.2;1" values="-24.35,-10.45;-24.75,-10.25;-24.8,-10.25;-24.65,-10.5;-24.55,-10.3;-24.65,-10.4;-24.7,-10.4;-24.6,-10.5;-24.65,-10.5;-24.6,-10.55;-24.6,-10.5;-24.75,-10.5;-24.65,-10.5;-24.65,-10.4;-24.6,-10.5;-24.5,-10.45;-24.6,-10.6;-24.45,-10.5;-24.45,-10.55;-24.4,-10.45;-24.5,-10.65;-24.45,-10.55;-24.35,-10.45;-24.4,-10.5;-24.3,-10.55;-24.3,-10.55;-24.45,-10.5;-24.35,-10.45;-24.45,-10.5;-24.35,-10.45;0;0"/>
        <animateTransform attributeName="transform" additive="sum" type="translate" repeatCount="indefinite" dur="5.833s" keyTimes="0;.19999;.2;.207;.214;.221;.229;.236;.243;.25;.257;.264;.271;.279;.286;.293;.3;.307;.314;.321;.329;.336;.343;.35;.357;.364;.371;.379;.385;.38599;.386;1" values="0;0;-24.45,-10.5;-24.35,-10.45;-24.35,-10.35;-24.5,-10.45;-24.4,-10.5;-24.4,-10.45;-24.4,-10.35;-24.4,-10.4;-24.45,-10.35;-24.45,-10.25;-24.5,-10.35;-24.4,-10.35;-24.45,-10.25;-24.35,-10.35;-24.55,-10.3;-24.45,-10.35;-24.55,-10.3;-24.5,-10.35;-24.55,-10.3;-24.55,-10.3;-24.65,-10.45;-24.55,-10.35;-24.6,-10.35;-24.55,-10.35;-24.65,-10.35;-24.6,-10.35;-24.65,-10.35;-24.65,-10.35;0;0"/>
        <animateTransform attributeName="transform" additive="sum" type="translate" repeatCount="indefinite" dur="5.833s" keyTimes="0;.38599;.386;.393;.4;.407;.414;.421;.429;.436;.443;1" values="0;0;-24.65,-10.35;-24.65,-10.35;-24.6,-10.45;-24.65,-10.3;-24.6,-10.4;-24.65,-10.35;-24.55,-10.25;-24.55,-10.3;-24.65,-10.3;-24.65,-10.3"/>
        <path fill="#868904" stroke="none" d="M8.3 8.95L9.45 23.15 49.5 0 8.3 8.95Z"/>
        <path fill="#BAC703" stroke="none" d="M12 11.6L25.6 21.4 49.5 -.05 12 11.6Z"/>
        <path fill="#BAC703" stroke="none" d="M0 3L8.3 8.95 49.5 0 0 3Z"/>
        <path fill="#B2B200" stroke="none" d="M12 11.6L9.45 23.1 19.7 17.15 12 11.6Z"/>
      </g>
    </g>
  </g>
</svg>