<?xml version="1.0" encoding="utf-8"?>
<svg id="test" image-rendering="auto" baseProfile="basic" version="1.1" x="0px" y="0px" width="280" height="260" xmlns="http://www.w3.org/2000/svg" xmlns:xlink="http://www.w3.org/1999/xlink">
  <defs>
    <g id="Symbol-19" overflow="visible">
      <g id="Symbol-24" transform="translate(-2.45 -2.45)">
        <animateTransform attributeName="transform" additive="replace" type="translate" dur="2.083s" keyTimes="0;1" values="0,0;0,0" fill="freeze"/>
        <animateTransform attributeName="transform" additive="sum" type="translate" repeatCount="indefinite" dur="2.083s" keyTimes="0;.02;.04;.06;.08;.1;.12;.14;.16;.18;.2;.22;.24;.26;.28;.3;.32;.34;.36;.38;.4;.42;.44;.46;.48;.5;.52;.54;.559;.55999;.56;1" values="0,0;-.024,-.025;-.047,-.049;-.021,-.024;-.044,-.049;-.018,-.024;-.041,-.048;-.015,-.023;-.038,-.048;-.011,-.022;-.035,-.047;-.002,-.022;-.032,-.046;-.055,-.021;-.029,-.046;-.052,-.02;-.026,-.045;-.049,-.02;-.023,-.045;-.046,-.009;-.009,-.044;-.043,-.007;-.004,-.043;-.04,-.006;0,-.043;-.037,-.004;-.061,-.042;-.034,-.002;-.058,-.041;-.015,-.001;0;0"/>
        <animateTransform attributeName="transform" additive="sum" type="translate" repeatCount="indefinite" dur="2.083s" keyTimes="0;.55999;.56;.58;.6;.62;.64;.66;.68;.7;.72;.74;.76;.78;.8;.82;.84;.86;.88;.9;.92;.94;.96;.98;1" values="0;0;-.058,-.041;-.015,-.001;-.055,-.041;-.011,-.066;-.052,-.04;-.007,-.065;-.049,-.04;-.002,-.064;-.046,-.039;-.069,-.064;-.021,-.018;-.066,-.063;-.069,-.062;-.005,-.061;-.011,-.059;-.03,-.058;-.033,-.057;-.036,-.055;-.04,-.054;-.043,-.053;-.047,-.051;0,0;0,0"/>
        <animateTransform attributeName="transform" additive="sum" type="scale" repeatCount="indefinite" dur="2.083s" keyTimes="0;.02;.04;.06;.08;.1;.12;.14;.16;.18;.2;.22;.24;.26;.28;.3;.32;.34;.36;.38;.4;.42;.44;.46;.48;.5;.52;.54;.559;.55999;.56;1" values="1,1;1.011,1.011;1.023,1.021;1.034,1.032;1.045,1.043;1.056,1.054;1.068,1.065;1.079,1.075;1.09,1.086;1.102,1.097;1.113,1.108;1.124,1.118;1.135,1.129;1.147,1.14;1.158,1.151;1.169,1.161;1.18,1.172;1.192,1.183;1.203,1.194;1.214,1.205;1.226,1.215;1.237,1.226;1.248,1.237;1.259,1.248;1.271,1.258;1.282,1.269;1.293,1.28;1.305,1.291;1.316,1.301;1.327,1.312;1;1"/>
        <animateTransform attributeName="transform" additive="sum" type="scale" repeatCount="indefinite" dur="2.083s" keyTimes="0;.55999;.56;.58;.6;.62;.64;.66;.68;.7;.72;.74;.76;.78;.8;.82;.84;.86;.88;.9;.92;.94;.96;.98;1" values="1;1;1.316,1.301;1.327,1.312;1.338,1.323;1.35,1.334;1.361,1.345;1.372,1.355;1.384,1.366;1.395,1.377;1.406,1.388;1.417,1.398;1.429,1.409;1.44,1.42;1.396,1.378;1.352,1.336;1.308,1.294;1.264,1.252;1.22,1.21;1.176,1.168;1.132,1.126;1.088,1.084;1.044,1.042;1,1;1,1"/>
        <animateTransform attributeName="transform" additive="sum" type="translate" repeatCount="indefinite" dur="2.083s" keyTimes="0;.02;.2;.22;.24;.36;.38;.4;.42;.44;.46;.48;.5;.52;.54;.559;.55999;.56;1" values="-2.45,-2.45;-2.35,-2.35;-2.35,-2.35;-2.4,-2.35;-2.35,-2.35;-2.35,-2.35;-2.35,-2.4;-2.4,-2.35;-2.35,-2.4;-2.4,-2.35;-2.35,-2.4;-2.4,-2.35;-2.35,-2.4;-2.35,-2.35;-2.35,-2.4;-2.35,-2.35;-2.4,-2.4;0;0"/>
        <animateTransform attributeName="transform" additive="sum" type="translate" repeatCount="indefinite" dur="2.083s" keyTimes="0;.55999;.56;.58;.6;.62;.64;.66;.68;.7;.72;.74;.76;.78;.8;.82;.84;.86;.96;.98;1" values="0;0;-2.35,-2.35;-2.4,-2.4;-2.35,-2.35;-2.4,-2.35;-2.35,-2.35;-2.4,-2.35;-2.35,-2.35;-2.4,-2.35;-2.35,-2.35;-2.35,-2.35;-2.4,-2.4;-2.35,-2.35;-2.35,-2.35;-2.4,-2.35;-2.4,-2.35;-2.35,-2.35;-2.35,-2.35;-2.45,-2.45;-2.45,-2.45"/>
        <path fill="#FEFEFE" stroke="none" d="M3.2 3.2Q3.889 2.461 4.9 2.45 3.889 2.438 3.2 1.7 2.461 .961 2.45 0 2.438 .961 1.7 1.7 .961 2.438 0 2.45 .961 2.461 1.7 3.2 2.438 3.889 2.45 4.9 2.461 3.889 3.2 3.2Z"/>
      </g>
    </g>
    <g id="Symbol-20" overflow="visible">
      <g id="Symbol-25" transform="matrix(3.64 0 0 3.64 0 0)">
        <animateTransform attributeName="transform" additive="replace" type="translate" dur="4.167s" keyTimes="0;1" values="0,0;0,0" fill="freeze"/>
        <animateTransform attributeName="transform" additive="sum" type="translate" repeatCount="indefinite" dur="4.167s" keyTimes="0;.01;.02;.03;.04;.05;.06;.07;.08;.09;.1;.11;.12;.13;.14;.15;.16;.17;.18;.19;.2;.21;.22;.23;.24;.25;.26;.27;.279;.27999;.28;1" values=".728,.728;.721,.721;.714,.715;.708,.709;.701,.702;.694,.696;.687,.689;.68,.683;.674,.676;.667,.67;.66,.663;.653,.657;.696,.65;.69,.694;.683,.688;.676,.681;.824,.675;.816,.823;.807,.815;.849,.806;.84,.848;.832,.84;.823,.832;.815,.824;.806,.816;.798,.808;.789,.8;.695,.792;.688,.697;.681,.691;0;0"/>
        <animateTransform attributeName="transform" additive="sum" type="translate" repeatCount="indefinite" dur="4.167s" keyTimes="0;.27999;.28;.29;.3;.31;.32;.33;.34;.35;.36;.37;.38;.39;.4;.41;.42;.43;.44;.45;.46;.47;.48;.49;.5;.51;.52;.53;.539;.53999;.54;1" values="0;0;.688,.697;.681,.691;.674,.684;.668,.678;.661,.671;.78,.665;.821,.785;.813,.777;.804,.819;.796,.811;.788,.803;.779,.795;.771,.787;.812,.779;.804,.771;.686,.763;.787,.805;.778,.687;.77,.788;.761,.78;.753,.772;.794,.764;.689,.756;.682,.798;.675,.79;.76,.686;.752,.679;.743,.766;0;0"/>
        <animateTransform attributeName="transform" additive="sum" type="translate" repeatCount="indefinite" dur="4.167s" keyTimes="0;.53999;.54;.55;.56;.57;.58;.59;.6;.61;.62;.63;.64;.65;.66;.67;.68;.69;.7;.71;.72;.73;.74;.75;.76;.77;.78;.79;.799;.79999;.8;1" values="0;0;.752,.679;.743,.766;.785,.758;.776,.75;.684,.742;.759,.783;.687,.745;.784,.757;.747,.675;.759,.685;.678,.793;.688,.755;.797,.767;.759,.779;.772,.683;.784,.803;.688,.764;.81,.776;.772,.788;.785,.8;.797,.812;.81,.824;.822,.786;.785,.668;.668,.728;.678,.687;.688,.697;.698,.795;0;0"/>
        <animateTransform attributeName="transform" additive="sum" type="translate" repeatCount="indefinite" dur="4.167s" keyTimes="0;.79999;.8;.81;.82;.83;.84;.85;.86;.87;.88;.89;.9;.91;.92;.93;.94;.95;.96;.97;.98;.99;1" values="0;0;.688,.697;.698,.795;.797,.807;.81,.819;.822,.831;.835,.843;.847,.855;.81,.817;.822,.673;.678,.683;.688,.692;.698,.652;.658,.661;.668,.671;.678,.68;.688,.69;.698,.699;.708,.709;.718,.718;.728,.728;.728,.728"/>
        <animateTransform attributeName="transform" additive="sum" type="scale" repeatCount="indefinite" dur="4.167s" keyTimes="0;.01;.02;.03;.04;.05;.06;.07;.08;.09;.1;.11;.12;.13;.14;.15;.16;.17;.18;.19;.2;.21;.22;.23;.24;.25;.26;.27;.279;.27999;.28;1" values="3.64,3.64;3.606,3.607;3.572,3.575;3.538,3.543;3.504,3.51;3.47,3.478;3.436,3.446;3.402,3.414;3.368,3.381;3.334,3.349;3.3,3.317;3.266,3.284;3.232,3.252;3.199,3.22;3.165,3.188;3.131,3.155;3.097,3.123;3.063,3.091;3.029,3.058;2.995,3.026;2.961,2.994;2.927,2.961;2.893,2.929;2.859,2.897;2.825,2.864;2.791,2.832;2.757,2.8;2.723,2.767;2.689,2.735;2.656,2.703;1;1"/>
        <animateTransform attributeName="transform" additive="sum" type="scale" repeatCount="indefinite" dur="4.167s" keyTimes="0;.27999;.28;.29;.3;.31;.32;.33;.34;.35;.36;.37;.38;.39;.4;.41;.42;.43;.44;.45;.46;.47;.48;.49;.5;.51;.52;.53;.539;.53999;.54;1" values="1;1;2.689,2.735;2.656,2.703;2.622,2.671;2.588,2.638;2.554,2.606;2.52,2.574;2.486,2.541;2.452,2.509;2.418,2.477;2.384,2.444;2.35,2.412;2.316,2.38;2.282,2.348;2.248,2.315;2.214,2.283;2.18,2.251;2.146,2.218;2.113,2.186;2.079,2.154;2.045,2.121;2.011,2.089;1.977,2.057;1.943,2.024;1.909,1.992;1.875,1.96;1.841,1.928;1.807,1.895;1.773,1.863;1;1"/>
        <animateTransform attributeName="transform" additive="sum" type="scale" repeatCount="indefinite" dur="4.167s" keyTimes="0;.53999;.54;.55;.56;.57;.58;.59;.6;.61;.62;.63;.64;.65;.66;.67;.68;.69;.7;.71;.72;.73;.74;.75;.76;.77;.78;.79;.799;.79999;.8;1" values="1;1;1.807,1.895;1.773,1.863;1.739,1.831;1.705,1.798;1.671,1.766;1.637,1.734;1.687,1.781;1.738,1.829;1.788,1.877;1.838,1.924;1.888,1.972;1.938,2.02;1.988,2.067;2.038,2.115;2.088,2.163;2.138,2.21;2.188,2.258;2.238,2.306;2.288,2.353;2.338,2.401;2.388,2.449;2.438,2.496;2.488,2.544;2.538,2.591;2.589,2.639;2.639,2.687;2.689,2.734;2.739,2.782;1;1"/>
        <animateTransform attributeName="transform" additive="sum" type="scale" repeatCount="indefinite" dur="4.167s" keyTimes="0;.79999;.8;.81;.82;.83;.84;.85;.86;.87;.88;.89;.9;.91;.92;.93;.94;.95;.96;.97;.98;.99;1" values="1;1;2.689,2.734;2.739,2.782;2.789,2.83;2.839,2.877;2.889,2.925;2.939,2.973;2.989,3.02;3.039,3.068;3.089,3.116;3.139,3.163;3.189,3.211;3.239,3.259;3.289,3.306;3.339,3.354;3.389,3.402;3.44,3.449;3.49,3.497;3.54,3.545;3.59,3.592;3.64,3.64;3.64,3.64"/>
        <animateTransform attributeName="transform" additive="sum" type="translate" repeatCount="indefinite" dur="4.167s" keyTimes="0;.15;.16;.17;.26;.27;.279;.27999;.28;1" values="-.2,-.2;-.2,-.2;-.25,-.2;-.25,-.25;-.25,-.25;-.2,-.25;-.2,-.2;-.2,-.2;0;0"/>
        <animateTransform attributeName="transform" additive="sum" type="translate" repeatCount="indefinite" dur="4.167s" keyTimes="0;.27999;.28;.32;.33;.34;.42;.43;.44;.45;.46;.49;.5;.52;.53;.539;.53999;.54;1" values="0;0;-.2,-.2;-.2,-.2;-.25,-.2;-.25,-.25;-.25,-.25;-.2,-.25;-.25,-.25;-.25,-.2;-.25,-.25;-.25,-.25;-.2,-.25;-.2,-.25;-.25,-.2;-.25,-.2;-.25,-.25;0;0"/>
        <animateTransform attributeName="transform" additive="sum" type="translate" repeatCount="indefinite" dur="4.167s" keyTimes="0;.53999;.54;.55;.57;.58;.59;.6;.61;.62;.63;.64;.65;.66;.67;.68;.69;.7;.71;.76;.77;.78;.799;.79999;.8;1" values="0;0;-.25,-.2;-.25,-.25;-.25,-.25;-.2,-.25;-.25,-.25;-.2,-.25;-.25,-.25;-.25,-.2;-.25,-.2;-.2,-.25;-.2,-.25;-.25,-.25;-.25,-.25;-.25,-.2;-.25,-.25;-.2,-.25;-.25,-.25;-.25,-.25;-.25,-.2;-.2,-.2;-.2,-.2;-.2,-.25;0;0"/>
        <animateTransform attributeName="transform" additive="sum" type="translate" repeatCount="indefinite" dur="4.167s" keyTimes="0;.79999;.8;.81;.82;.87;.88;.89;1" values="0;0;-.2,-.2;-.2,-.25;-.25,-.25;-.25,-.25;-.25,-.2;-.2,-.2;-.2,-.2"/>
        <g id="Symbol-31" transform="translate(-2.45 -2.45)">
          <path fill="#FEFEFE" stroke="none" d="M3.2 3.2Q3.889 2.461 4.9 2.45 3.889 2.439 3.2 1.75 2.461 1.011 2.45 0 2.439 1.011 1.75 1.75 1.011 2.439 0 2.45 1.011 2.461 1.75 3.2 2.439 3.938 2.45 4.9 2.461 3.938 3.2 3.2Z"/>
        </g>
      </g>
    </g>
    <g id="STAR" overflow="visible">
      <g id="Symbol-26" transform="translate(-5.6 -5.6)">
        <animateTransform attributeName="transform" additive="replace" type="translate" dur="1.667s" keyTimes="0;1" values="0,0;0,0" fill="freeze"/>
        <animateTransform attributeName="transform" additive="sum" type="translate" repeatCount="indefinite" dur="1.667s" keyTimes="0;.025;.05;.075;.1;.125;.15;.175;.2;.225;.25;.275;.3;.325;.35;.375;.4;.425;.45;.475;.5;.525;.55;.575;.6;.625;.65;.675;.699;.69999;.7;1" values="0,0;-.039,-.039;-.028,-.028;-.017,-.017;-.057,-.057;-.046,-.046;-.035,-.035;-.01,-.01;-.063,-.063;-.052,-.052;-.041,-.041;-.009,-.009;-.069,-.069;-.058,-.058;-.021,-.021;-.008,-.008;-.076,-.076;-.032,-.032;-.019,-.019;-.001,-.001;-.064,-.064;-.015,-.015;-.075,-.075;-.055,-.055;-.011,-.011;-.066,-.066;-.046,-.046;-.006,-.006;-.056,-.056;-.037,-.037;0;0"/>
        <animateTransform attributeName="transform" additive="sum" type="translate" repeatCount="indefinite" dur="1.667s" keyTimes="0;.69999;.7;.725;.75;.775;.8;.825;.85;.875;.9;.925;.95;.975;1" values="0;0;-.056,-.056;-.037,-.037;-.002,-.002;-.047,-.047;-.027,-.027;-.058,-.058;-.038,-.038;-.018,-.018;-.048,-.048;-.029,-.029;-.009,-.009;-.039,-.039;-.039,-.039"/>
        <animateTransform attributeName="transform" additive="sum" type="scale" repeatCount="indefinite" dur="1.667s" keyTimes="0;.025;.05;.075;.1;.125;.15;.175;.2;.225;.25;.275;.3;.325;.35;.375;.4;.425;.45;.475;.5;.525;.55;.575;.6;.625;.65;.675;.699;.69999;.7;1" values="1,1;1.038,1.038;1.077,1.077;1.115,1.115;1.153,1.153;1.192,1.192;1.23,1.23;1.268,1.268;1.307,1.307;1.345,1.345;1.383,1.383;1.422,1.422;1.46,1.46;1.498,1.498;1.537,1.537;1.575,1.575;1.613,1.613;1.652,1.652;1.69,1.69;1.657,1.657;1.625,1.625;1.592,1.592;1.559,1.559;1.526,1.526;1.494,1.494;1.461,1.461;1.428,1.428;1.395,1.395;1.362,1.362;1.33,1.33;1;1"/>
        <animateTransform attributeName="transform" additive="sum" type="scale" repeatCount="indefinite" dur="1.667s" keyTimes="0;.69999;.7;.725;.75;.775;.8;.825;.85;.875;.9;.925;.95;.975;1" values="1;1;1.362,1.362;1.33,1.33;1.297,1.297;1.264,1.264;1.231,1.231;1.199,1.199;1.166,1.166;1.133,1.133;1.1,1.1;1.068,1.068;1.035,1.035;1.002,1.002;1.002,1.002"/>
        <animateTransform attributeName="transform" additive="sum" type="translate" repeatCount="indefinite" dur="1.667s" keyTimes="0;.025;.15;.175;.2;.25;.275;.3;.325;.35;.375;.4;.425;.475;.5;.525;.55;.575;.6;.625;.65;.675;.699;.69999;.7;1" values="-5.6,-5.6;-5.5,-5.5;-5.5,-5.5;-5.55,-5.55;-5.5,-5.5;-5.5,-5.5;-5.55,-5.55;-5.5,-5.5;-5.5,-5.5;-5.55,-5.55;-5.55,-5.55;-5.5,-5.5;-5.55,-5.55;-5.55,-5.55;-5.5,-5.5;-5.55,-5.55;-5.5,-5.5;-5.5,-5.5;-5.55,-5.55;-5.5,-5.5;-5.5,-5.5;-5.55,-5.55;-5.5,-5.5;-5.5,-5.5;0;0"/>
        <animateTransform attributeName="transform" additive="sum" type="translate" repeatCount="indefinite" dur="1.667s" keyTimes="0;.69999;.7;.725;.75;.775;1" values="0;0;-5.5,-5.5;-5.5,-5.5;-5.55,-5.55;-5.5,-5.5;-5.5,-5.5"/>
        <path fill="#FEFEFE" stroke="none" d="M7.25 7.25Q8.9 5.65 11.25 5.6 8.9 5.55 7.25 3.9 5.65 2.3 5.6 0 5.55 2.3 3.95 3.9 2.3 5.55 0 5.6 2.3 5.65 3.95 7.25 5.55 8.9 5.6 11.25 5.65 8.9 7.25 7.25Z"/>
      </g>
    </g>
    <g id="ATOM" overflow="visible">
      <g display="none" id="Layer13_0_FILL">
        <path fill="#3B404A" stroke="none" d="M7.75 -22.25Q4.7 -32.55 0 -32.55 -4.7 -32.55 -7.75 -22.25 -10.55 -12.8 -10.55 0 -10.55 12.85 -7.85 22.25 -4.85 32.55 0 32.55 4.7 32.55 7.75 22.3 10.55 12.75 10.55 0 10.55 -12.8 7.75 -22.25M0 -30.85Q3.35 -30.85 6.05 -22.25 8.9 -13.1 8.9 0 8.9 13.05 6.05 22.3 3.35 30.85 0 30.85 -3.35 30.85 -6 22.3 -8.85 13.1 -8.85 0 -8.85 -13.1 -6 -22.25 -3.35 -30.85 0 -30.85Z"/>
        <animate attributeName="display" repeatCount="indefinite" dur="2.083s" keyTimes="0;.98;1" values="none;inline;inline"/>
      </g>
      <g id="Layer12_0_FILL">
        <path fill="#3B404A" stroke="none" d="M7.75 -22.25Q4.7 -32.55 0 -32.55 -4.7 -32.55 -7.75 -22.25 -10.55 -12.8 -10.55 0 -10.55 12.85 -7.85 22.25 -4.85 32.55 0 32.55 4.7 32.55 7.75 22.3 10.55 12.75 10.55 0 10.55 -12.8 7.75 -22.25M0 -30.85Q3.35 -30.85 6.05 -22.25 8.9 -13.1 8.9 0 8.9 13.05 6.05 22.3 3.35 30.85 0 30.85 -3.35 30.85 -6 22.3 -8.85 13.1 -8.85 0 -8.85 -13.1 -6 -22.25 -3.35 -30.85 0 -30.85Z"/>
        <animate attributeName="display" repeatCount="indefinite" dur="2.083s" keyTimes="0;.98;1" values="inline;none;none"/>
      </g>
      <g id="Symbol-30" transform="translate(1.5 24.8)">
        <animateTransform attributeName="transform" additive="replace" type="translate" dur="2.083s" keyTimes="0;1" values="0,0;0,0" fill="freeze"/>
        <animateTransform attributeName="transform" additive="sum" type="translate" repeatCount="indefinite" dur="2.083s" keyTimes="0;.02;.04;.06;.08;.1;.12;.14;.16;.18;.2;.22;.24;.26;.28;.3;.32;.34;.36;.38;.4;.42;.44;.46;.48;.5;.52;.54;.559;.55999;.56;1" values="1.5,24.8;2.5,22.3;3.5,19.8;4.5,15.3;5.5,10.8;6.4,2.3;6.35,-3.65;6.35,-9.65;5.9,-14.1;5.55,-18.6;3.9,-24;2.35,-29.4;1.85,-30.35;1.4,-31.35;.9,-32.35;.4,-33.35;-.1,-34.35;-1.2,-34.6;-2.3,-34.9;-3.4,-35.2;-4.3,-34.95;-5.2,-34.75;-6.05,-34.5;-7,-34.3;-7.75,-32.65;-8.5,-31;-9.25,-29.4;-10,-27.15;-10.85,-24.95;-11.55,-21.6;0;0"/>
        <animateTransform attributeName="transform" additive="sum" type="translate" repeatCount="indefinite" dur="2.083s" keyTimes="0;.55999;.56;.58;.6;.62;.64;.66;.68;.7;.72;.74;.76;.78;.8;.82;.84;.86;.88;.9;.92;.94;.96;.98;1" values="0;0;-10.85,-24.95;-11.55,-21.6;-12.3,-18.35;-12.65,-13.65;-13.05,-9.05;-12.3,11.6;-11.25,16.1;-10.25,20.55;-9.5,22.15;-8.75,23.75;-8,25.3;-7.3,26.95;-6,27.55;-4.7,28.15;-3.45,28.75;-2.75,28.55;-2.05,28.35;-1.35,28.15;-.7,28;.1,26.9;.85,25.85;1.55,24.8;1.55,24.8"/>
        <path fill="#FEFEFE" stroke="none" d="M5.85 5.85Q6.85 4.85 6.85 3.4 6.85 2 5.85 1 4.8 0 3.4 0 2 0 1 1 0 2 0 3.4 0 4.8 1 5.85 2 6.85 3.4 6.85 4.85 6.85 5.85 5.85Z"/>
      </g>
    </g>
  </defs>
  <g id="Szene-1" overflow="visible">
    <path fill="#FEFEFE" stroke="none" d="M188 187.85Q188 167.45 173.6 153.05 159.2 138.55 138.8 138.55 118.35 138.55 103.9 153.05 89.5 167.45 89.5 187.85 89.5 208.3 103.9 222.7 118.35 237.1 138.8 237.1 159.2 237.1 173.6 222.7 188 208.3 188 187.85Z"/>
    <path fill="#BAC703" stroke="none" d="M178.45 187.8Q178.45 171.35 166.8 159.7 155.25 148.05 138.8 148.05 122.3 148.05 110.65 159.7 99 171.35 99 187.8 99 204.3 110.65 215.95 122.3 227.6 138.8 227.6 155.25 227.6 166.8 215.95 178.45 204.3 178.45 187.8Z"/>
    <path fill="#FEFEFE" stroke="none" d="M151.05 119.75L126.4 119.75 126.4 140.1 151.05 140.1 151.05 119.75Z"/>
    <path fill="#E4E3E3" stroke="none" d="M155 107L122.45 107 122.45 119.75 155 119.75 155 107Z"/>
    <path fill="#FEFEFE" stroke="none" d="M187.95 148.4L178.2 138.7 168.1 148.8 177.75 158.55 187.95 148.4Z"/>
    <path fill="#E4E3E3" stroke="none" d="M193.7 145.7L180.95 132.85 176.65 137.15 189.5 149.95 193.7 145.7Z"/>
    <path fill="#FEFEFE" stroke="none" d="M164.35 61.7Q167.3 64.7 167.3 68.85L169.7 68.85Q169.7 63.65 166.1 60.05 162.3 56.35 157.3 56.35 152.1 56.35 148.45 60.05 144.8 63.65 144.8 68.85L144.8 98.65 147.2 98.65 147.2 68.85Q147.2 64.7 150.15 61.7 153.1 58.75 157.3 58.75 161.5 58.75 164.35 61.7Z"/>
    <path fill="#FEFEFE" stroke="none" d="M134.95 76.9L137.45 76.9 137.45 68.65Q137.45 63.5 133.75 59.8 129.95 56.15 124.95 56.15L124.95 58.55Q129.1 58.55 132.05 61.5 134.95 64.4 134.95 68.65L134.95 76.9Z"/>
    <path fill="#FEFEFE" stroke="none" d="M101.9 82.35Q106.65 77.45 113.55 77.45 120.55 77.45 125.3 82.35 130.1 87.15 130.1 94L130.1 105.05 132.5 105.05 132.5 94Q132.5 86.1 127 80.6 121.35 75.05 113.55 75.05 105.85 75.05 100.2 80.6L101.9 82.35Z"/>
    <path fill="#FEFEFE" stroke="none" d="M154.1 42.75Q148.25 42.75 144.05 46.95 139.9 51.1 139.9 57.05L139.9 91.65 142.3 91.65 142.3 57.05Q142.3 52.1 145.75 48.65 149.15 45.25 154.1 45.25L154.1 42.75Z"/>
    <use xlink:href="#ATOM" transform="translate(139.45 187.9)"/>
    <use xlink:href="#ATOM" transform="matrix(-.504 -.864 .864 -.504 139.45 188)"/>
    <use xlink:href="#ATOM" transform="matrix(-.518 .855 -.855 -.518 139.45 187.95)"/>
    <g id="BALLLIGHT" transform="translate(139.45 187.95)">
      <g id="Symbol-29">
        <g id="Symbol-34" transform="translate(-5.45 -5.45)">
          <path fill="#3B404A" stroke="none" d="M1.6 9.3Q3.2 10.9 5.45 10.9 7.7 10.9 9.3 9.3 10.9 7.7 10.9 5.45 10.9 3.2 9.3 1.6 7.7 0 5.45 0 3.2 0 1.6 1.6 0 3.2 0 5.45 0 7.7 1.6 9.3Z"/>
        </g>
      </g>
      <g display="none" id="Layer11_0_FILL">
        <path fill="#FFF" stroke="none" d="M3.85 -3.85Q2.25 -5.45 0 -5.45 -2.25 -5.45 -3.85 -3.85 -5.45 -2.25 -5.45 0 -5.45 2.25 -3.85 3.85 -2.25 5.45 0 5.45 2.25 5.45 3.85 3.85 5.45 2.25 5.45 0 5.45 -2.25 3.85 -3.85Z"/>
        <animate attributeName="display" repeatCount="indefinite" dur="1.042s" keyTimes="0;.2;.4;1" values="none;inline;none;none"/>
      </g>
    </g>
    <use xlink:href="#STAR" transform="translate(86.95 95.5)"/>
    <use xlink:href="#Symbol-20" transform="translate(99.75 111.45)"/>
    <use xlink:href="#Symbol-19" transform="translate(102.1 97.3)"/>
    <g id="Symbol-22" transform="translate(114.7 57.2)">
      <g id="Symbol-28" transform="translate(-8.25 -8.2)">
        <animateTransform attributeName="transform" additive="replace" type="translate" dur="1.667s" keyTimes="0;1" values="0,0;0,0" fill="freeze"/>
        <animateTransform attributeName="transform" additive="sum" type="translate" repeatCount="indefinite" dur="1.667s" keyTimes="0;.025;.05;.075;.1;.125;.15;.175;.2;.225;.25;.275;.3;.325;.35;.375;.4;.425;.45;.475;.5;.525;.55;.575;.6;.625;.65;.675;.699;.69999;.7;1" values="0,0;-.044,-.043;-.038,-.036;-.032,-.03;-.026,-.023;-.021,-.016;-.015,-.009;-.009,-.002;-.003,-.039;-.039,-.031;-.032,-.032;-.025,-.025;-.018,-.018;-.023,-.011;-.017,-.005;-.011,-.035;-.005,-.027;-.034,-.019;-.027,-.012;-.021,-.004;-.014,-.014;-.007,-.007;0,0;-.023,-.023;-.008,-.015;-.007,-.007;-.028,-.01;-.032,-.032;-.02,-.005;-.005,-.027;0;0"/>
        <animateTransform attributeName="transform" additive="sum" type="translate" repeatCount="indefinite" dur="1.667s" keyTimes="0;.69999;.7;.725;.75;.775;.8;.825;.85;.875;.9;.925;.95;.975;1" values="0;0;-.02,-.005;-.005,-.027;-.012,-.012;-.033,-.022;-.014,-.004;-.025,-.025;-.003,-.039;-.028,-.022;-.037,-.037;-.011,-.008;-.031,-.029;0,0;0,0"/>
        <animateTransform attributeName="transform" additive="sum" type="scale" repeatCount="indefinite" dur="1.667s" keyTimes="0;.025;.05;.075;.1;.125;.15;.175;.2;.225;.25;.275;.3;.325;.35;.375;.4;.425;.45;.475;.5;.525;.55;.575;.6;.625;.65;.675;.699;.69999;.7;1" values="1,1;.982,.982;.965,.965;.947,.947;.929,.929;.912,.912;.894,.894;.876,.876;.859,.859;.841,.841;.823,.823;.806,.806;.788,.788;.77,.77;.753,.753;.735,.735;.717,.717;.699,.699;.682,.682;.664,.664;.646,.646;.629,.629;.611,.611;.593,.593;.576,.576;.604,.604;.632,.632;.661,.661;.689,.689;.717,.717;1;1"/>
        <animateTransform attributeName="transform" additive="sum" type="scale" repeatCount="indefinite" dur="1.667s" keyTimes="0;.69999;.7;.725;.75;.775;.8;.825;.85;.875;.9;.925;.95;.975;1" values="1;1;.689,.689;.717,.717;.745,.745;.774,.774;.802,.802;.83,.83;.859,.859;.887,.887;.915,.915;.943,.943;.972,.972;1,1;1,1"/>
        <animateTransform attributeName="transform" additive="sum" type="translate" repeatCount="indefinite" dur="1.667s" keyTimes="0;.025;.175;.2;.225;.25;.3;.325;.35;.375;.4;.425;.475;.5;.55;.575;.6;.625;.65;.675;.699;.69999;.7;1" values="-8.25,-8.2;-8.15,-8.1;-8.15,-8.1;-8.15,-8.05;-8.1,-8.05;-8.1,-8.1;-8.1,-8.1;-8.15,-8.1;-8.15,-8.1;-8.15,-8.05;-8.15,-8.05;-8.1,-8.05;-8.1,-8.05;-8.1,-8.1;-8.1,-8.1;-8.05,-8.05;-8.15,-8.05;-8.1,-8.1;-8.1,-8.05;-8.05,-8.05;-8.1,-8.05;-8.15,-8.05;0;0"/>
        <animateTransform attributeName="transform" additive="sum" type="translate" repeatCount="indefinite" dur="1.667s" keyTimes="0;.69999;.7;.725;.75;.775;.8;.825;.85;.875;.9;.925;.95;.975;1" values="0;0;-8.1,-8.05;-8.15,-8.05;-8.1,-8.1;-8.1,-8.05;-8.15,-8.1;-8.1,-8.1;-8.15,-8.05;-8.2,-8.15;-8.1,-8.1;-8.15,-8.1;-8.15,-8.1;-8.25,-8.2;-8.25,-8.2"/>
        <path fill="#FEFEFE" stroke="none" d="M10.7 5.8Q8.288 3.388 8.25 .1 8.211 3.388 5.8 5.8 3.388 8.211 .1 8.25 3.388 8.288 5.8 10.7 8.211 13.111 8.25 16.35 8.288 13.111 10.7 10.7 13.111 8.288 16.4 8.25 13.111 8.211 10.7 5.8Z"/>
      </g>
    </g>
    <g id="Symbol-21" transform="translate(161.75 44.2)">
      <g id="Symbol-27" transform="translate(-5.05 -5.05)">
        <animateTransform attributeName="transform" additive="replace" type="translate" dur="2.083s" keyTimes="0;1" values="0,0;0,0" fill="freeze"/>
        <animateTransform attributeName="transform" additive="sum" type="translate" repeatCount="indefinite" dur="2.083s" keyTimes="0;.02;.04;.06;.08;.1;.12;.14;.16;.18;.2;.22;.24;.26;.28;.3;.32;.34;.36;.38;.4;.42;.44;.46;.48;.5;.52;.54;.559;.55999;.56;1" values="0,0;-.012,-.012;-.025,-.025;-.037,-.037;-.049,-.049;-.011,-.011;-.023,-.023;-.036,-.036;-.048,-.048;-.002,-.002;-.022,-.022;-.034,-.034;-.046,-.046;-.059,-.059;-.008,-.008;-.033,-.033;-.045,-.045;-.058,-.058;-.004,-.004;-.015,-.015;-.044,-.044;-.056,-.056;-.068,-.068;-.01,-.01;-.043,-.043;-.007,-.007;-.061,-.061;-.046,-.046;-.012,-.012;-.064,-.064;0;0"/>
        <animateTransform attributeName="transform" additive="sum" type="translate" repeatCount="indefinite" dur="2.083s" keyTimes="0;.55999;.56;.58;.6;.62;.64;.66;.68;.7;.72;.74;.76;.78;.8;.82;.84;.86;.88;.9;.92;.94;.96;.98;1" values="0;0;-.012,-.012;-.064,-.064;-.049,-.049;-.033,-.033;-.003,-.003;-.051,-.051;-.036,-.036;-.008,-.008;-.054,-.054;-.039,-.039;-.023,-.023;-.057,-.057;-.042,-.042;-.026,-.026;-.004,-.004;-.044,-.044;-.029,-.029;-.013,-.013;-.047,-.047;-.032,-.032;-.016,-.016;0,0;0,0"/>
        <animateTransform attributeName="transform" additive="sum" type="scale" repeatCount="indefinite" dur="2.083s" keyTimes="0;.02;.04;.06;.08;.1;.12;.14;.16;.18;.2;.22;.24;.26;.28;.3;.32;.34;.36;.38;.4;.42;.44;.46;.48;.5;.52;.54;.559;.55999;.56;1" values="1,1;1.018,1.018;1.035,1.035;1.053,1.053;1.071,1.071;1.089,1.089;1.106,1.106;1.124,1.124;1.142,1.142;1.16,1.16;1.177,1.177;1.195,1.195;1.213,1.213;1.231,1.231;1.248,1.248;1.266,1.266;1.284,1.284;1.302,1.302;1.319,1.319;1.337,1.337;1.355,1.355;1.372,1.372;1.39,1.39;1.408,1.408;1.426,1.426;1.409,1.409;1.392,1.392;1.375,1.375;1.358,1.358;1.341,1.341;1;1"/>
        <animateTransform attributeName="transform" additive="sum" type="scale" repeatCount="indefinite" dur="2.083s" keyTimes="0;.55999;.56;.58;.6;.62;.64;.66;.68;.7;.72;.74;.76;.78;.8;.82;.84;.86;.88;.9;.92;.94;.96;.98;1" values="1;1;1.358,1.358;1.341,1.341;1.324,1.324;1.306,1.306;1.289,1.289;1.272,1.272;1.255,1.255;1.238,1.238;1.221,1.221;1.204,1.204;1.187,1.187;1.17,1.17;1.153,1.153;1.136,1.136;1.119,1.119;1.102,1.102;1.085,1.085;1.068,1.068;1.051,1.051;1.034,1.034;1.017,1.017;1,1;1,1"/>
        <animateTransform attributeName="transform" additive="sum" type="translate" repeatCount="indefinite" dur="2.083s" keyTimes="0;.02;.16;.18;.2;.26;.28;.3;.34;.36;.38;.4;.44;.46;.48;.5;.52;.54;.559;.55999;.56;1" values="-5.05,-5.05;-4.95,-4.95;-4.95,-4.95;-5,-5;-4.95,-4.95;-4.95,-4.95;-5,-5;-4.95,-4.95;-4.95,-4.95;-5,-5;-5,-5;-4.95,-4.95;-4.95,-4.95;-5,-5;-4.95,-4.95;-5,-5;-4.95,-4.95;-4.95,-4.95;-5,-5;-4.95,-4.95;0;0"/>
        <animateTransform attributeName="transform" additive="sum" type="translate" repeatCount="indefinite" dur="2.083s" keyTimes="0;.55999;.56;.58;.62;.64;.66;.68;.7;.72;.82;.84;.86;.96;.98;1" values="0;0;-5,-5;-4.95,-4.95;-4.95,-4.95;-5,-5;-4.95,-4.95;-4.95,-4.95;-5,-5;-4.95,-4.95;-4.95,-4.95;-5,-5;-4.95,-4.95;-4.95,-4.95;-5.05,-5.05;-5.05,-5.05"/>
        <path fill="#FEFEFE" stroke="none" d="M6.55 3.55Q5.073 2.073 5.05 .05 5.026 2.073 3.55 3.55 2.073 5.026 .05 5.05 2.073 5.073 3.55 6.55 5.026 8.026 5.05 10 5.073 8.026 6.55 6.55 8.026 5.073 10 5.05 8.026 5.026 6.55 3.55Z"/>
      </g>
    </g>
    <use xlink:href="#STAR" transform="matrix(-1.553 0 0 -1.553 222.95 133.05)"/>
    <use xlink:href="#Symbol-20" transform="matrix(-1.553 0 0 -1.553 203.15 108.3)"/>
    <use xlink:href="#Symbol-19" transform="matrix(-1.553 0 0 -1.553 199.5 130.25)"/>
    <g id="Symbol-18" transform="translate(168.45 75.5)">
      <g id="Symbol-23" transform="translate(-5.05 -5.05)">
        <animateTransform attributeName="transform" additive="replace" type="translate" dur="1.667s" keyTimes="0;1" values="0,0;0,0" fill="freeze"/>
        <animateTransform attributeName="transform" additive="sum" type="translate" repeatCount="indefinite" dur="1.667s" keyTimes="0;.025;.05;.075;.1;.125;.15;.175;.2;.225;.25;.275;.3;.325;.35;.375;.4;.425;.45;.475;.5;.525;.55;.575;.6;.625;.65;.675;.699;.69999;.7;1" values="0,0;-.028,-.028;-.006,-.006;-.034,-.034;-.011,-.011;-.039,-.039;-.017,-.017;-.045,-.045;-.022,-.022;-.05,-.05;-.028,-.028;-.056,-.056;-.034,-.034;-.002,-.002;-.039,-.039;-.006,-.006;-.045,-.045;-.01,-.01;-.05,-.05;-.028,-.028;-.047,-.047;-.003,-.003;-.034,-.034;-.052,-.052;-.021,-.021;-.04,-.04;-.058,-.058;-.027,-.027;-.046,-.046;-.014,-.014;0;0"/>
        <animateTransform attributeName="transform" additive="sum" type="translate" repeatCount="indefinite" dur="1.667s" keyTimes="0;.69999;.7;.725;.75;.775;.8;.825;.85;.875;.9;.925;.95;.975;1" values="0;0;-.046,-.046;-.014,-.014;-.033,-.033;-.051,-.051;-.02,-.02;-.039,-.039;-.007,-.007;-.026,-.026;-.044,-.044;-.013,-.013;-.032,-.032;0,0;0,0"/>
        <animateTransform attributeName="transform" additive="sum" type="scale" repeatCount="indefinite" dur="1.667s" keyTimes="0;.025;.05;.075;.1;.125;.15;.175;.2;.225;.25;.275;.3;.325;.35;.375;.4;.425;.45;.475;.5;.525;.55;.575;.6;.625;.65;.675;.699;.69999;.7;1" values="1,1;1.015,1.015;1.029,1.029;1.044,1.044;1.058,1.058;1.073,1.073;1.088,1.088;1.102,1.102;1.117,1.117;1.131,1.131;1.146,1.146;1.16,1.16;1.175,1.175;1.19,1.19;1.204,1.204;1.219,1.219;1.233,1.233;1.248,1.248;1.263,1.263;1.277,1.277;1.263,1.263;1.249,1.249;1.236,1.236;1.222,1.222;1.208,1.208;1.194,1.194;1.18,1.18;1.166,1.166;1.152,1.152;1.139,1.139;1;1"/>
        <animateTransform attributeName="transform" additive="sum" type="scale" repeatCount="indefinite" dur="1.667s" keyTimes="0;.69999;.7;.725;.75;.775;.8;.825;.85;.875;.9;.925;.95;.975;1" values="1;1;1.152,1.152;1.139,1.139;1.125,1.125;1.111,1.111;1.097,1.097;1.083,1.083;1.069,1.069;1.055,1.055;1.042,1.042;1.028,1.028;1.014,1.014;1,1;1,1"/>
        <animateTransform attributeName="transform" additive="sum" type="translate" repeatCount="indefinite" dur="1.667s" keyTimes="0;.025;.3;.325;.35;.375;.4;.425;.45;.5;.525;.55;.699;.69999;.7;1" values="-5.05,-5.05;-4.95,-4.95;-4.95,-4.95;-5,-5;-4.95,-4.95;-5,-5;-4.95,-4.95;-5,-5;-4.95,-4.95;-4.95,-4.95;-5,-5;-4.95,-4.95;-4.95,-4.95;-4.95,-4.95;0;0"/>
        <animateTransform attributeName="transform" additive="sum" type="translate" repeatCount="indefinite" dur="1.667s" keyTimes="0;.69999;.7;.95;.975;1" values="0;0;-4.95,-4.95;-4.95,-4.95;-5.05,-5.05;-5.05,-5.05"/>
        <path fill="#FEFEFE" stroke="none" d="M6.55 3.55Q5.073 2.073 5.05 .05 5.026 2.073 3.55 3.55 2.073 5.026 .05 5.05 2.073 5.073 3.55 6.55 5.026 8.026 5.05 10 5.073 8.026 6.55 6.55 8.026 5.073 10 5.05 8.026 5.026 6.55 3.55Z"/>
      </g>
    </g>
  </g>
</svg>