<?xml version="1.0" encoding="utf-8"?><svg id="Home-Slide-1" image-rendering="auto" baseProfile="basic" version="1.1" x="0px" y="0px" width="280" height="260" xmlns="http://www.w3.org/2000/svg" xmlns:xlink="http://www.w3.org/1999/xlink"><g id="Szene-1-Kopie" overflow="visible"><g id="Hintergrund.svg" transform="translate(.65 1)"><path fill="#F2F2F2" stroke="none" d="M0 199.4L20.85 205.85 20.85 193.15 0 199.4Z"/><path fill="#CCCBCA" stroke="none" d="M0 199.4L20.85 205.85 20.85 201.85 0 199.4Z"/><path fill="#474F59" stroke="none" d="M257.6 193.15L20.85 193.15 20.85 205.85 257.6 205.85 257.6 193.15Z"/><path fill="#232E38" stroke="none" d="M20.85 201.85L20.85 205.85 257.6 205.85 257.6 201.85 20.85 201.85Z"/><path fill="#353F49" stroke="none" d="M0 199.4L8.15 201.9 8.15 196.9 0 199.4Z"/><path fill="#232E38" stroke="none" d="M0 199.4L8.15 201.9 8.15 200.4 0 199.4Z"/><path fill="#F2F2F2" stroke="none" d="M265 193.15L257.6 193.15 257.6 205.85 265 205.85 265 193.15Z"/><path fill="#CCCBCA" stroke="none" d="M265 201.85L257.6 201.85 257.6 205.85 265 205.85 265 201.85Z"/><path fill="#FF9978" stroke="none" d="M276.5 195.05Q274.65 193.2 272.05 193.2L264.95 193.2 264.95 205.9 272.05 205.85Q274.65 205.85 276.5 204 278.3 202.15 278.3 199.5 278.3 196.85 276.5 195.05Z"/><path fill="#ED6D47" stroke="none" d="M276.6 194.9Q275.4 193.8 274.1 193.4 274.95 195.9 273.8 198.25 272.65 200.6 270.1 201.4 269 201.7 268.1 201.7L264.85 201.7 264.85 205.7 272 205.7Q274.65 205.7 276.45 203.85 278.25 202 278.25 199.35 278.4 196.85 276.6 194.9Z"/><path fill="#CCCBCA" stroke="none" d="M64.3 244.8Q63.7 245.4 63.7 246.3L63.7 253.4 75.8 253.4 75.8 246.3Q75.8 245.45 75.2 244.85 74.6 244.2 73.7 244.2L65.8 244.2Q64.95 244.2 64.3 244.8Z"/><path fill="#E6E5E5" stroke="none" d="M77.4 253.4L62.2 253.4 62.2 255.5 77.4 255.5 77.4 253.4Z"/><path fill="#CCCBCA" stroke="none" d="M65.65 255.5L65.65 258.65Q65.65 259.5 66.55 259.5 66.95 259.5 67.2 259.25 67.5 259 67.5 258.65L67.5 255.5 65.65 255.5Z"/><path fill="#CCCBCA" stroke="none" d="M72.05 255.5L72.05 258.65Q72.05 259 72.35 259.25 72.6 259.5 73 259.5 73.9 259.5 73.9 258.65L73.9 255.5 72.05 255.5Z"/><path fill="#FFF" stroke="none" d="M75.5 191.4Q72.85 191.35 70.9 193.15L75.15 193.1Q77.05 193.1 78.4 194.45 79.75 195.85 79.75 197.7L79.75 224.2Q79.75 226.85 81.65 228.7 83.55 230.6 86.15 230.6 88.8 230.6 90.65 228.7 92.55 226.85 92.55 224.2L92.55 175 90.75 175 90.75 224.2Q90.75 226.1 89.4 227.45 88 228.85 86.15 228.85 84.25 228.85 82.9 227.5 81.55 226.15 81.55 224.2L81.55 197.7Q81.55 195.1 79.9 193.35 78.1 191.45 75.5 191.4Z"/><path fill="#FFF" stroke="none" d="M70.7 205.85L68.9 205.85 68.9 244.25 70.7 244.25 70.7 205.85Z"/><path fill="#E6E5E5" stroke="none" d="M70.55 244.2L70.55 240 68.75 238.9 68.75 244.2 70.55 244.2Z"/><path fill="#CCCBCA" stroke="none" d="M92.7 172.15L90.9 172.15 90.9 175 92.7 175 92.7 172.15Z"/><path fill="#F2F2F2" stroke="none" d="M197.1 171.2Q198 170.3 198 169L198 159.65 57 159.65 57 169Q57 170.3 57.9 171.25 58.8 172.15 60.05 172.15L194.85 172.15Q196.15 172.15 197.1 171.2Z"/><path fill="#232E38" stroke="none" d="M198 69.35Q198 68.05 197.1 67.15 196.15 66.25 194.85 66.25L60.05 66.25Q58.8 66.25 57.9 67.15 57 68.05 57 69.35L57 159.65 198 159.65 198 69.35Z"/><path fill="#91D3D9" stroke="none" d="M190.85 152.5L190.85 73.2 64 73.2 64 152.5 190.85 152.5Z"/><path fill="#E6E5E5" stroke="none" d="M110 172.15L107.9 190.9 147.1 190.9 144.85 172.15 110 172.15Z"/><path fill="#F2F2F2" stroke="none" d="M100.05 192.25L100.05 193.15 155 193.15 155 192.25Q154.7 190.95 153.65 190.95L101.35 190.95Q100.85 190.95 100.45 191.35 100.05 191.75 100.05 192.25Z"/><path fill="#CCCBCA" stroke="none" d="M147.1 190.9L144.85 172.15 110 172.15 128.15 190.9 147.1 190.9Z"/><path fill="#FFF" stroke="none" d="M140.5 112.9Q135.1 107.5 127.5 107.5 119.85 107.5 114.45 112.9 109.05 118.3 109.05 125.95 109.05 133.55 114.45 138.95 119.85 144.35 127.5 144.35 135.1 144.35 140.5 138.95 145.85 133.55 145.85 125.95 145.85 118.3 140.5 112.9Z"/><path fill="#FFF" stroke="none" d="M135.8 109.5L135.8 104.95 119.15 104.95 119.15 109.5 135.8 109.5Z"/><path fill="#474F59" stroke="none" d="M119.65 86.8Q117.3 89.15 117.3 92.5L117.3 101.95 137.6 101.95 137.6 92.5Q137.6 89.15 135.25 86.8 132.9 84.45 129.5 84.45L125.4 84.45Q122 84.45 119.65 86.8Z"/><path fill="#353F49" stroke="none" d="M138.6 102.35Q138.2 101.95 137.6 101.95L117.3 101.95Q116.7 101.95 116.3 102.35 115.9 102.7 115.9 103.35L115.9 103.5Q115.9 104.15 116.3 104.55 116.7 104.95 117.3 104.95L137.6 104.95Q138.2 104.95 138.6 104.55 139 104.15 139 103.5L139 103.35Q139 102.7 138.6 102.35Z"/><path fill="#353F49" stroke="none" d="M129.25 81.5Q128.95 81.35 128.85 81.35L125.95 81.35 125.55 81.5Q125.35 81.7 125.35 81.95L125.35 84.35 129.45 84.35 129.45 81.95Q129.45 81.7 129.25 81.5Z"/><path fill="#474F59" stroke="none" d="M128.1 0L126.9 .15 126.9 81.35 128.1 81.35 128.1 0Z"/><path fill="#FFF" stroke="none" d="M20.25 167.4Q20.25 178.05 27.8 185.6 35.35 193.1 46 193.1 56.6 193.1 64.15 185.6 71.65 178.05 71.65 167.4 71.65 156.8 64.15 149.25 56.6 141.7 46 141.7 35.35 141.7 27.8 149.25 20.25 156.8 20.25 167.4Z"/><path fill="#FFF" stroke="none" d="M52.5 142.45L52.5 131.85 39.55 131.85 39.55 142.45 52.5 142.45Z"/><path fill="#F2F2F2" stroke="none" d="M54.5 131.85L54.5 125.1 37.5 125.1 37.5 131.85 54.5 131.85Z"/><path fill="#FFF" stroke="none" d="M66.65 141.75L61.35 147.05 66.45 152.1 71.75 146.8 66.65 141.75Z"/><path fill="#F2F2F2" stroke="none" d="M68.05 138.6L65.8 140.85 72.5 147.55 74.8 145.3 68.05 138.6Z"/><path fill="#FFF" stroke="none" d="M24 92.1Q22.7 92.1 21.85 93 21 93.85 21 95.1 21 96.4 21.85 97.25 22.7 98.1 24 98.1L42.55 98.1Q43.8 98.1 44.7 99 45.55 99.85 45.55 101.1 45.55 102.4 44.7 103.25 43.85 104.1 42.55 104.1L39.55 104.1Q38.3 104.1 37.4 105 36.55 105.85 36.55 107.1 36.55 108.4 37.4 109.25 38.3 110.1 39.55 110.1L44.75 110.1Q46.05 110.1 46.9 111 47.75 111.85 47.75 113.1 47.75 114.4 46.9 115.25 46.05 116.1 44.75 116.1L36.5 116.1Q35.2 116.1 34.35 117 33.5 117.85 33.5 119.1 33.5 120.4 34.35 121.25 35.2 122.1 36.5 122.1L40 122.1Q41.25 122.1 42.15 123 43 123.85 43 125.1L49 125.1Q49 123.85 49.85 123 50.7 122.1 52 122.1L60.55 122.1Q61.85 122.1 62.7 121.25 63.55 120.4 63.55 119.1 63.55 117.85 62.7 117 61.8 116.1 60.55 116.1L58.25 116.1Q57 116.1 56.1 115.25 55.25 114.4 55.25 113.1 55.25 111.85 56.1 111 57 110.1 58.25 110.1L89.3 110.1Q90.55 110.1 91.45 109.2 92.3 108.3 92.3 107.1 92.3 105.9 91.45 105 90.55 104.1 89.3 104.1L69.8 104.1Q68.55 104.1 67.65 103.25 66.8 102.4 66.8 101.1 66.8 99.85 67.65 99 68.55 98.1 69.8 98.1 71.1 98.1 71.95 97.25 72.8 96.4 72.8 95.1 72.8 93.85 71.95 93 71.05 92.1 69.8 92.1L24 92.1Z"/><path fill="#232E38" stroke="none" d="M178 133.85Q176.6 133.85 175.85 134.7 175 135.6 175 136.85L175 189 265.35 189 265.35 136.85Q265.35 135.8 264.5 134.7 263.6 133.85 262.35 133.85L178 133.85Z"/><path fill="#474F59" stroke="none" d="M221 135.2Q220.65 134.85 220.1 134.85 219.55 134.85 219.15 135.2 218.8 135.6 218.8 136.15 218.8 136.7 219.15 137.05 219.55 137.45 220.1 137.45 220.65 137.45 221 137.05 221.4 136.7 221.4 136.15 221.4 135.6 221 135.2Z"/><path fill="#FFF" stroke="none" d="M220.6 136.15Q220.6 135.65 220.1 135.65 219.6 135.65 219.6 136.15 219.6 136.65 220.1 136.65 220.6 136.65 220.6 136.15Z"/><path fill="#91D3D9" stroke="none" d="M179.6 138.4L179.6 189 260.6 189 260.6 138.4 179.6 138.4Z"/><path fill="#FFF" stroke="none" d="M220.15 155.85Q215.15 155.85 210.9 158 206.75 160.1 204.3 163.7 206.75 167.35 210.9 169.45 215.15 171.6 220.15 171.6 225.15 171.6 229.45 169.4 233.6 167.3 236.05 163.7 233.6 160.1 229.4 158 225.1 155.85 220.15 155.85Z"/><path fill="#91D3D9" stroke="none" d="M224.35 159.6Q222.6 157.85 220.1 157.85 217.6 157.85 215.85 159.6 214.1 161.35 214.1 163.85 214.1 166.35 215.85 168.1 217.6 169.85 220.1 169.85 222.6 169.85 224.35 168.1 226.1 166.35 226.1 163.85 226.1 161.35 224.35 159.6Z"/><path fill="#232E38" stroke="none" d="M222.05 161.85Q221.25 161 220.1 161 218.95 161 218.1 161.85 217.3 162.7 217.3 163.85 217.3 165 218.1 165.8 218.95 166.65 220.1 166.65 221.25 166.65 222.05 165.8 222.9 165 222.9 163.85 222.9 162.7 222.05 161.85Z"/><path fill="#232E38" stroke="none" d="M238.1 165.4L241.5 165.4 241.5 162 238.1 162 238.1 165.4M240.8 164.7L238.8 164.7 238.8 162.7 240.8 162.7 240.8 164.7Z"/><path fill="#232E38" stroke="none" d="M198.8 165.4L202.15 165.4 202.15 162 198.8 162 198.8 165.4M201.5 164.7L199.5 164.7 199.5 162.7 201.5 162.7 201.5 164.7Z"/><path fill="#232E38" stroke="none" d="M218.5 185.15L221.85 185.15 221.85 181.75 218.5 181.75 218.5 185.15M221.15 184.4L219.15 184.4 219.15 182.4 221.15 182.4 221.15 184.4Z"/><path fill="#232E38" stroke="none" d="M239.8 144.4L239.8 143.7 200.5 143.7 200.5 144.4 239.8 144.4Z"/><path fill="#232E38" stroke="none" d="M201.45 143.15Q201.05 142.75 200.5 142.75 199.9 142.75 199.5 143.15 199.1 143.55 199.1 144.15 199.1 144.7 199.5 145.1 199.9 145.5 200.5 145.5 201.05 145.5 201.45 145.1 201.85 144.7 201.85 144.15 201.85 143.55 201.45 143.15Z"/><path fill="#232E38" stroke="none" d="M240.75 143.15Q240.35 142.75 239.8 142.75 239.2 142.75 238.8 143.15 238.4 143.55 238.4 144.15 238.4 144.7 238.8 145.1 239.2 145.5 239.8 145.5 240.35 145.5 240.75 145.1 241.15 144.7 241.15 144.15 241.15 143.55 240.75 143.15Z"/><path fill="#232E38" stroke="none" d="M221.5 142.7L218.8 142.7 218.8 145.4 221.5 145.4 221.5 142.7Z"/><path fill="#232E38" stroke="none" d="M218.5 145.85L221.85 145.85 221.85 142.45 218.5 142.45 218.5 145.85M221.15 145.15L219.15 145.15 219.15 143.15 221.15 143.15 221.15 145.15Z"/><path fill="#232E38" stroke="none" d="M221.5 183L221.5 183.7Q229.05 183.15 234.3 177.9 239.65 172.6 240.05 165.15L239.35 165.15Q238.85 172.35 233.75 177.4 228.7 182.5 221.5 183Z"/><path fill="#232E38" stroke="none" d="M200.85 165.1L200.15 165.1Q200.7 172.6 206 177.9 211.3 183.2 218.8 183.7L218.75 183Q211.55 182.5 206.45 177.4 201.4 172.3 200.85 165.1Z"/><path fill="#232E38" stroke="none" d="M200.15 162.4L200.85 162.4Q201.3 155.25 206.45 150.15 211.55 145.05 218.75 144.5 226.8 144 232.8 149.2 238.85 154.45 239.35 162.4L240.15 162.4Q239.75 154.75 234.35 149.35 228.95 144 221.3 143.5 212.95 143.05 206.8 148.6 200.65 154.15 200.15 162.4Z"/><path fill="#F2F2F2" stroke="none" d="M165.35 189L165.35 190.4 275 190.4 275 189 165.35 189Z"/><path fill="#CCCBCA" stroke="none" d="M165.35 190.4Q171.6 193.1 178.25 193.1L262 193.1Q268.85 193.1 274.85 190.4L165.35 190.4Z"/><path fill="#232E38" stroke="none" d="M229.6 189L210.6 189 210.6 189.7 229.6 189.7 229.6 189Z"/><path fill="#FFF" stroke="none" d="M213.55 116Q215.2 117.7 217.6 117.7L247 117.7 247 82.6 211.9 82.6 211.9 112Q211.9 114.35 213.55 116Z"/><path fill="#353F49" stroke="none" d="M230.9 85.3Q230.35 84.7 229.5 84.7 228.65 84.7 228.05 85.3 227.5 85.85 227.5 86.7 227.5 87.55 228.05 88.15 228.65 88.7 229.5 88.7 230.35 88.7 230.9 88.15 231.5 87.55 231.5 86.7 231.5 85.9 230.9 85.3Z"/><path fill="#91D3D9" stroke="none" d="M240.65 95.5L218.15 95.5 218.15 97 240.65 97 240.65 95.5Z"/><path fill="#91D3D9" stroke="none" d="M240.65 99.35L218.15 99.35 218.15 100.85 240.65 100.85 240.65 99.35Z"/><path fill="#91D3D9" stroke="none" d="M229.5 103.2L218.15 103.2 218.15 104.7 229.5 104.7 229.5 103.2Z"/><path fill="#353F49" stroke="none" d="M223.35 111.95Q223.35 114.3 221.65 115.95 220.051 117.548 217.8 117.6L247 117.6Q249.35 117.6 251 115.9 252.65 114.25 252.65 111.95L223.35 111.95Z"/></g><g id="Symbol-14" transform="translate(119.15 118.35)"><animateTransform attributeName="transform" additive="replace" type="translate" dur="5.417s" keyTimes="0;1" values="0,0;0,0" fill="freeze"/><animateTransform attributeName="transform" additive="sum" type="translate" repeatCount="indefinite" dur="5.417s" keyTimes="0;.008;.015;.023;.031;.038;.046;.054;.062;.069;.077;.085;.092;.1;.108;.115;.123;.131;.138;.146;.154;.162;.169;.177;.185;.192;.2;.208;.214;.21499;.215;1" values="128.05,127.25;128.092,127.341;128.074,127.243;128.077,127.327;128.007,127.273;128.115,127.264;128.014,127.344;128.012,127.308;128,127.3;128.034,127.257;128.021,127.36;128.075,127.284;128.012,127.28;128.065,127.352;128,127.226;128.112,127.186;128.076,127.209;128.071,127.288;128.064,127.274;128.046,127.303;128.105,127.213;127.979,127.211;128.072,127.214;128.031,127.247;127.952,127.322;128.005,127.349;128.077,127.285;128.051,127.299;128.008,127.227;128.109,127.201;0;0"/><animateTransform attributeName="transform" additive="sum" type="translate" repeatCount="indefinite" dur="5.417s" keyTimes="0;.21499;.215;.223;.231;.238;.246;.254;.262;.269;.277;.285;.292;.3;.308;.315;.323;.331;.338;.346;.354;.362;.369;.377;.385;.392;.4;.408;.414;.41499;.415;1" values="0;0;128.008,127.227;128.109,127.201;128.113,127.234;128.061,127.237;128.095,127.318;128.074,127.239;128.128,127.258;128.138,127.241;128.135,127.234;128.132,127.247;128.115,127.291;128.102,127.2;128.131,127.232;128.052,127.224;128.067,127.263;128.118,127.242;128.083,127.227;128.112,127.244;128.124,127.249;128.044,127.214;128.049,127.223;128.101,127.228;128.043,127.261;128.078,127.221;128.091,127.244;128.025,127.3;128.114,127.292;128.032,127.3;0;0"/><animateTransform attributeName="transform" additive="sum" type="translate" repeatCount="indefinite" dur="5.417s" keyTimes="0;.41499;.415;.423;.431;.438;.446;.454;.462;.469;.477;.485;.492;.5;.508;.515;.523;.531;.538;.546;.554;.562;.569;1" values="0;0;128.114,127.292;128.032,127.3;128.066,127.231;128.104,127.356;128.151,127.278;128.06,127.292;128.12,127.242;128.142,127.28;128.144,127.254;128.154,127.303;128.169,127.306;128.1,127.34;128.103,127.281;128.161,127.319;128.125,127.306;128.104,127.321;128.137,127.263;128.093,127.273;128.166,127.336;128.093,127.3;128.05,127.25;128.05,127.25"/><animateTransform attributeName="transform" additive="sum" type="rotate" repeatCount="indefinite" dur="5.417s" keyTimes="0;.008;.015;.023;.031;.038;.046;.054;.062;.069;.077;.085;.092;.1;.108;.115;.123;.131;.138;.146;.154;.162;.169;.177;.185;.192;.2;.208;.214;.21499;.215;1" values="0,0,0;12.77,0,0;25.066,0,0;37.071,0,0;48.403,0,0;59.439,0,0;70.179,0,0;80.242,0,0;90.012,0,0;99.315,0,0;108.537,0,0;117.302,0,0;125.613,0,0;133.848,0,0;141.628,0,0;149.143,0,0;156.207,0,0;163.199,0,0;169.934,0,0;176.224,0,0;182.265,0,0;188.061,0,0;193.806,0,0;199.313,0,0;204.582,0,0;209.809,0,0;214.616,0,0;219.378,0,0;224.101,0,0;228.408,0,0;0;0"/><animateTransform attributeName="transform" additive="sum" type="rotate" repeatCount="indefinite" dur="5.417s" keyTimes="0;.21499;.215;.223;.231;.238;.246;.254;.262;.269;.277;.285;.292;.3;.308;.315;.323;.331;.338;.346;.354;.362;.369;.377;.385;.392;.4;.408;.414;.41499;.415;1" values="0;0;224.101,0,0;228.408,0,0;232.679,0,0;236.914,0,0;240.928,0,0;244.909,0,0;248.672,0,0;252.218,0,0;255.75,0,0;259.236,0,0;262.707,0,0;265.968,0,0;269.212,0,0;272.061,0,0;275.271,0,0;278.279,0,0;281.274,0,0;284.071,0,0;287.044,0,0;289.821,0,0;292.75,0,0;295.54,0,0;298.295,0,0;300.857,0,0;303.599,0,0;306.339,0,0;309.076,0,0;311.62,0,0;0;0"/><animateTransform attributeName="transform" additive="sum" type="rotate" repeatCount="indefinite" dur="5.417s" keyTimes="0;.41499;.415;.423;.431;.438;.446;.454;.462;.469;.477;.485;.492;.5;.508;.515;.523;.531;.538;.546;.554;.562;.569;1" values="0;0;309.076,0,0;311.62,0,0;314.352,0,0;316.893,0,0;319.619,0,0;322.156,0,0;324.88,0,0;327.415,0,0;329.951,0,0;332.673,0,0;335.206,0,0;337.929,0,0;340.462,0,0;343.182,0,0;345.713,0,0;348.432,0,0;350.962,0,0;353.495,0,0;356.215,0,0;358.747,0,0;360,0,0;360,0,0"/><animateTransform attributeName="transform" additive="sum" type="scale" repeatCount="indefinite" dur="5.417s" keyTimes="0;.008;.015;.038;.046;.054;.062;.069;.077;.085;.115;.123;.131;.138;.146;.154;.162;.169;.177;.185;.214;.21499;.215;1" values="1,1;1,.999;.997,.997;.997,.997;.998,.998;1,.999;1,1;1,.999;.998,.998;.997,.997;.997,.997;.998,.998;.998,.998;1,.999;1,1;1,1;1,.999;.998,.998;.998,.998;.997,.997;.997,.997;.997,.997;1;1"/><animateTransform attributeName="transform" additive="sum" type="scale" repeatCount="indefinite" dur="5.417s" keyTimes="0;.21499;.215;.254;.262;.269;.277;.292;.3;.315;.323;.338;.346;.362;.369;.377;.414;.41499;.415;1" values="1;1;.997,.997;.997,.997;.998,.998;.998,.998;1,.999;1,.999;1,1;1,1;1,.999;1,.999;.998,.998;.998,.998;1,.999;.997,.997;.997,.997;.997,.997;1;1"/><animateTransform attributeName="transform" additive="sum" type="scale" repeatCount="indefinite" dur="5.417s" keyTimes="0;.41499;.415;.492;.5;.523;.531;.546;.554;1" values="1;1;.997,.997;.997,.997;.998,.998;.998,.998;1,.999;1,.999;1,1;1,1"/><animateTransform attributeName="transform" additive="sum" type="translate" repeatCount="indefinite" dur="5.417s" keyTimes="0;.008;.015;.023;.031;.038;.046;.054;.062;.069;.077;.085;.092;.1;.108;.115;.123;.131;.138;.146;.154;.162;.177;.185;.192;.2;.208;.214;.21499;.215;1" values="-8.9,-8.9;-8.95,-8.95;-9,-8.9;-9,-8.95;-8.9,-8.9;-9,-8.85;-8.95,-8.85;-9,-8.85;-9,-8.9;-8.95,-8.8;-9,-8.85;-8.9,-8.75;-8.9,-8.85;-8.9,-8.75;-8.9,-8.8;-8.75,-8.8;-8.8,-8.8;-8.85,-8.75;-8.8,-8.8;-8.85,-8.8;-8.8,-8.8;-8.85,-8.85;-8.85,-8.85;-8.9,-8.75;-8.85,-8.8;-8.75,-8.85;-8.75,-8.85;-8.85,-8.85;-8.8,-8.9;0;0"/><animateTransform attributeName="transform" additive="sum" type="translate" repeatCount="indefinite" dur="5.417s" keyTimes="0;.21499;.215;.223;.231;.238;.246;.254;.262;.269;.277;.285;.292;.3;.308;.315;.323;.331;.338;.346;.354;.362;.369;.377;.385;.392;.4;.408;.414;.41499;.415;1" values="0;0;-8.85,-8.85;-8.8,-8.9;-8.8,-9;-8.85,-8.95;-8.8,-8.9;-8.8,-8.9;-8.8,-9;-8.75,-9;-8.8,-9;-8.85,-8.95;-8.75,-9;-8.9,-8.95;-8.8,-9.05;-8.8,-9;-8.85,-8.95;-8.85,-9;-8.8,-8.95;-8.85,-8.95;-8.85,-9.05;-8.85,-8.95;-8.85,-8.95;-8.85,-9.05;-8.85,-8.95;-8.85,-9;-8.9,-8.95;-8.8,-9;-8.85,-9.05;-8.8,-9;0;0"/><animateTransform attributeName="transform" additive="sum" type="translate" repeatCount="indefinite" dur="5.417s" keyTimes="0;.41499;.415;.423;.431;.438;.446;.454;.462;.469;.477;.485;.492;.5;.508;.515;.523;.531;.538;.546;.554;.562;.569;1" values="0;0;-8.85,-9.05;-8.8,-9;-8.9,-9;-8.85,-9.05;-8.9,-9.05;-8.9,-9;-9,-8.95;-9,-9;-8.95,-8.95;-8.9,-9;-8.95,-9;-8.9,-9;-8.95,-8.95;-8.95,-9.05;-8.95,-9;-8.95,-9;-9.05,-9;-8.95,-8.9;-9,-9;-9,-9;-8.9,-8.9;-8.9,-8.9"/><path fill="#3B404A" stroke="none" d="M10.35 2.1L10.35 0 7.45 0 7.45 2.1Q6.2 2.35 5.15 3.05L3.6 1.5 1.55 3.55 3.05 5.05Q2.35 6.15 2.1 7.45L0 7.45 0 10.35 2.1 10.35Q2.35 11.6 3.05 12.7L1.55 14.15 3.6 16.2 5.1 14.75Q6.15 15.45 7.45 15.7L7.45 17.8 10.35 17.8 10.35 15.7Q11.65 15.45 12.75 14.75L14.15 16.15 16.2 14.1 14.75 12.65Q15.45 11.6 15.7 10.35L17.8 10.35 17.8 7.45 15.7 7.45Q15.45 6.15 14.75 5.1L16.2 3.6 14.15 1.55 12.7 3.05Q11.6 2.35 10.35 2.1M13.25 8.9Q13.25 10.7 11.95 11.95 10.7 13.25 8.9 13.25 7.1 13.25 5.8 11.95 4.55 10.7 4.55 8.9 4.55 7.1 5.8 5.8 7.1 4.55 8.9 4.55 10.7 4.55 11.95 5.8 13.25 7.1 13.25 8.9Z"/><path fill="#FFF" stroke="none" d="M11.95 11.95Q13.25 10.7 13.25 8.9 13.25 7.1 11.95 5.8 10.7 4.55 8.9 4.55 7.1 4.55 5.8 5.8 4.55 7.1 4.55 8.9 4.55 10.7 5.8 11.95 7.1 13.25 8.9 13.25 10.7 13.25 11.95 11.95M10.65 7.1Q11.4 7.85 11.4 8.9 11.4 9.95 10.65 10.65 9.95 11.4 8.9 11.4 7.85 11.4 7.1 10.65 6.4 9.95 6.4 8.9 6.4 7.85 7.1 7.1 7.85 6.4 8.9 6.4 9.95 6.4 10.65 7.1Z"/><path fill="#BAC628" stroke="none" d="M11.4 8.9Q11.4 7.85 10.65 7.1 9.95 6.4 8.9 6.4 7.85 6.4 7.1 7.1 6.4 7.85 6.4 8.9 6.4 9.95 7.1 10.65 7.85 11.4 8.9 11.4 9.95 11.4 10.65 10.65 11.4 9.95 11.4 8.9Z"/></g><g id="Layer5_0_FILL"><path fill="#91D3D9" stroke="none" d="M232.9 171.2Q237.75 168.6 237.75 164.9 237.75 161.2 232.9 158.55 228.05 155.95 221.15 155.95 214.25 155.95 209.4 158.55 204.55 161.2 204.55 164.9 204.55 168.6 209.4 171.2 214.25 173.85 221.15 173.85 228.05 173.85 232.9 171.2Z"/><animate attributeName="display" repeatCount="indefinite" dur="5.417s" keyTimes="0;.538;1" values="inline;none;none"/></g><g><g id="AUGE" transform="translate(204.95 156.75)"><animateTransform attributeName="transform" additive="replace" type="translate" repeatCount="indefinite" dur="5.417s" keyTimes="0;.323;.331;.338;.346;.354;.362;1" values="220.8,164.65;220.8,164.65;220.8,164.684;220.8,164.654;220.8,164.65;220.8,164.702;220.8,164.699;220.8,164.699"/><animateTransform attributeName="transform" additive="sum" type="scale" repeatCount="indefinite" dur="5.417s" keyTimes="0;.23799;.238;.323;.331;.338;.346;.354;.362;1" values="1;1;1,1;1,1;1,.675;1,.35;1,.025;1,.513;1,1;1,1"/><animateTransform attributeName="transform" additive="sum" type="translate" repeatCount="indefinite" dur="5.417s" keyTimes="0;.323;.331;.338;.346;.354;.362;1" values="-15.85,-7.9;-15.85,-7.9;-15.85,-8.05;-15.85,-8.15;-15.85,-9.9;-15.85,-8.1;-15.85,-7.95;-15.85,-7.95"/><path fill="#FEFEFE" stroke="none" d="M15.9 0Q10.9 0 6.6 2.2 2.45 4.3 0 7.9 2.45 11.55 6.6 13.65 10.85 15.8 15.9 15.8 20.9 15.8 25.2 13.6 29.35 11.5 31.75 7.9 29.35 4.3 25.15 2.2 20.85 0 15.9 0Z"/><path fill="#A5CED6" stroke="none" d="M20.05 3.75Q18.3 2 15.8 2 13.3 2 11.55 3.75 9.8 5.5 9.8 8 9.8 10.5 11.55 12.25 13.3 14 15.8 14 18.3 14 20.05 12.25 21.8 10.5 21.8 8 21.8 5.55 20.05 3.75Z"/><path fill="#2B313A" stroke="none" d="M17.75 6.05Q16.95 5.2 15.8 5.2 14.65 5.2 13.8 6.05 13 6.85 13 8 13 9.15 13.8 10 14.65 10.8 15.8 10.8 16.95 10.8 17.75 10 18.6 9.15 18.6 8 18.6 6.9 17.75 6.05Z"/></g><animate attributeName="display" repeatCount="indefinite" dur="5.417s" keyTimes="0;.538;1" values="inline;none;none"/></g><g display="none" id="Layer4_0_FILL"><path fill="#91D3D9" stroke="none" d="M23.85 170.5Q25.15 179.65 32.6 185.2 40.05 190.8 49.15 189.5 56.55 188.5 61.85 183.2 67.1 177.95 68.15 170.5L23.85 170.5Z"/><animate attributeName="display" repeatCount="indefinite" dur="5.417s" keyTimes="0;.992;1" values="none;inline;inline"/></g><g id="Layer3_0_FILL"><path fill="#91D3D9" stroke="none" d="M23.85 170.5Q25.15 179.65 32.6 185.2 40.05 190.8 49.15 189.5 56.55 188.5 61.85 183.2 67.1 177.95 68.15 170.5L23.85 170.5Z"/><animate attributeName="display" repeatCount="indefinite" dur="5.417s" keyTimes="0;.992;1" values="inline;none;none"/></g><g><g id="Symbol-13" transform="translate(42.4 189.85)"><animateTransform attributeName="transform" additive="replace" type="translate" dur="5.417s" keyTimes="0;1" values="0,0;0,0" fill="freeze"/><animateTransform attributeName="transform" additive="sum" type="translate" repeatCount="indefinite" dur="5.417s" keyTimes="0;.038;.046;.054;.062;.069;.077;.085;.092;.1;.108;.115;.123;.131;.138;.146;.154;.162;.169;.177;.185;.192;.2;.208;.215;.223;.231;.238;.245;.24599;.246;1" values="44.4,191.85;44.4,191.85;44.449,191.85;44.498,191.85;44.588,191.85;44.707,191.85;44.857,191.85;44.957,191.551;45.257,191.143;45.707,190.904;46.107,190.486;46.507,190.132;46.907,189.807;47.307,189.357;47.707,188.857;48.057,188.278;48.457,187.857;48.707,187.357;48.607,186.778;48.557,186.407;48.457,185.907;48.278,185.407;48.257,184.907;48.128,184.407;48.107,183.907;48.007,183.457;47.878,182.928;47.857,182.557;47.728,182.107;47.707,181.657;0;0"/><animateTransform attributeName="transform" additive="sum" type="translate" repeatCount="indefinite" dur="5.417s" keyTimes="0;.24599;.246;.254;.262;.269;.277;.285;.292;.3;.308;.315;.323;.331;.338;.346;.354;.362;.369;.377;.385;.392;.4;.408;.415;.423;.431;.438;.445;.44599;.446;1" values="0;0;47.728,182.107;47.707,181.657;47.657,181.207;47.557,180.757;47.507,180.307;47.328,179.778;47.178,179.407;47.107,178.957;46.907,178.507;46.757,178.057;46.557,177.607;46.407,177.157;46.207,176.628;46.057,176.257;45.828,175.678;45.707,175.307;45.657,174.807;45.657,174.357;45.657,173.857;45.657,173.328;45.657,172.907;45.657,172.378;45.657,171.957;45.657,171.457;45.657,171.028;45.657,170.707;45.657,170.357;45.657,169.957;0;0"/><animateTransform attributeName="transform" additive="sum" type="translate" repeatCount="indefinite" dur="5.417s" keyTimes="0;.44599;.446;.454;.462;.469;.477;.485;.492;.5;.508;.515;.523;.531;1" values="0;0;45.657,170.357;45.657,169.957;45.657,169.607;45.657,169.207;45.657,168.807;45.657,168.457;45.657,168.057;45.657,167.707;45.657,167.307;45.657,166.957;45.657,166.478;45.657,166.078;45.657,166.078"/><animateTransform attributeName="transform" additive="sum" type="scale" repeatCount="indefinite" dur="5.417s" keyTimes="0;.038;.046;.054;.062;.069;.077;.085;.092;.1;.108;.115;.123;.245;.24599;.246;1" values="1,1;1,1;1.119,1;1.285,1;1.447,1;1.575,1;1.575,1;1.575,1.096;1.575,1.192;1.575,1.287;1.575,1.383;1.575,1.479;1.575,1.575;1.575,1.575;1.575,1.575;1;1"/><animateTransform attributeName="transform" additive="sum" type="scale" repeatCount="indefinite" dur="5.417s" keyTimes="0;.24599;.246;.445;.44599;.446;1" values="1;1;1.575,1.575;1.575,1.575;1.575,1.575;1;1"/><animateTransform attributeName="transform" additive="sum" type="scale" repeatCount="indefinite" dur="5.417s" keyTimes="0;.44599;.446;1" values="1;1;1.575,1.575;1.575,1.575"/><animateTransform attributeName="transform" additive="sum" type="translate" repeatCount="indefinite" dur="5.417s" keyTimes="0;.038;.046;.054;.062;.077;.085;.092;.1;.108;.115;.123;.138;.146;.154;.162;.169;.177;.185;.192;.2;.208;.215;.223;.231;.238;.245;.24599;.246;1" values="-2,-2;-2,-2;-2.1,-2;-2.1,-2.05;-2.1,-2;-2.1,-2;-2.1,-2.1;-2.1,-2.05;-2.1,-2.1;-2.1,-2.05;-2.1,-2.05;-2.1,-2.1;-2.1,-2.1;-2.1,-2.05;-2.1,-2.1;-2.1,-2.1;-2.1,-2.05;-2.1,-2.1;-2.1,-2.1;-2.05,-2.1;-2.1,-2.1;-2.05,-2.1;-2.1,-2.1;-2.1,-2.1;-2.05,-2.05;-2.1,-2.1;-2.05,-2.1;-2.1,-2.1;0;0"/><animateTransform attributeName="transform" additive="sum" type="translate" repeatCount="indefinite" dur="5.417s" keyTimes="0;.24599;.246;.254;.277;.285;.292;.3;.331;.338;.346;.354;.362;.385;.392;.4;.408;.415;.423;.431;.438;.445;.44599;.446;1" values="0;0;-2.05,-2.1;-2.1,-2.1;-2.1,-2.1;-2.05,-2.05;-2.05,-2.1;-2.1,-2.1;-2.1,-2.1;-2.1,-2.05;-2.1,-2.1;-2.05,-2.05;-2.1,-2.1;-2.1,-2.1;-2.1,-2.05;-2.1,-2.1;-2.1,-2.05;-2.1,-2.1;-2.1,-2.1;-2.1,-2.05;-2.1,-2.1;-2.1,-2.1;-2.1,-2.1;0;0"/><animateTransform attributeName="transform" additive="sum" type="translate" repeatCount="indefinite" dur="5.417s" keyTimes="0;.44599;.446;.515;.523;1" values="0;0;-2.1,-2.1;-2.1,-2.1;-2.1,-2.05;-2.1,-2.05"/><path fill="#FFF" stroke="none" d="M3.45 .55Q2.85 0 2 0 1.15 0 .6 .55 0 1.15 0 2 0 2.85 .6 3.4 1.2 4 2 4 2.85 4 3.45 3.4 4 2.85 4 2 4 1.15 3.45 .55Z"/></g><animate attributeName="display" repeatCount="indefinite" dur="5.417s" keyTimes="0;.538;1" values="inline;none;none"/></g><g><g id="Symbol-12" transform="translate(55.8 187)"><animateTransform attributeName="transform" additive="replace" type="translate" dur="5.417s" keyTimes="0;1" values="0,0;0,0" fill="freeze"/><animateTransform attributeName="transform" additive="sum" type="translate" repeatCount="indefinite" dur="5.417s" keyTimes="0;.008;.015;.023;.031;.038;.046;.054;.062;.069;.077;.085;.092;.1;.108;.115;.123;.131;.138;.146;.154;.162;.169;.177;.185;.192;.2;.208;.214;.21499;.215;1" values="55.8,187;55.4,186.5;54.95,185.95;54.55,185.4;54.1,184.85;53.7,184.3;53.3,183.75;52.9,183.25;52.5,182.7;52.55,182.15;53,181.6;53.4,181.05;53.8,180.5;54.25,180.05;54.65,179.6;55.05,179.15;55.4,178.7;55.8,178.25;55.4,177.8;55,177.35;54.6,176.9;54.15,176.45;53.75,176;53.35,175.5;52.95,175.2;52.6,174.9;52.2,174.55;51.85,174.25;52.1,173.95;52.4,173.6;0;0"/><animateTransform attributeName="transform" additive="sum" type="translate" repeatCount="indefinite" dur="5.417s" keyTimes="0;.21499;.215;.223;.231;.238;.246;.254;.262;.269;.277;.285;.292;.3;.308;.315;.323;.331;.338;.346;.354;.362;.369;.377;.385;.392;.4;.408;.414;.41499;.415;1" values="0;0;52.1,173.95;52.4,173.6;52.7,173.3;53,173;53.3,172.65;53.25,172.35;53.2,172;53.1,171.6;53,171.2;52.95,170.8;52.85,170.4;52.8,170;52.75,169.75;52.65,169.45;52.6,169.15;52.55,168.85;52.45,168.55;52.4,168.25;52.35,167.95;52.3,167.65;52.25,167.4;52.15,167.1;52.1,166.8;52.05,166.5;52,166.2;51.95,165.9;51.9,165.6;51.85,165.3;0;0"/><animateTransform attributeName="transform" additive="sum" type="translate" repeatCount="indefinite" dur="5.417s" keyTimes="0;.41499;.415;.423;.431;1" values="0;0;51.9,165.6;51.85,165.3;51.8,165;51.8,165"/><path fill="#FFF" stroke="none" d="M3.45 .55Q2.85 0 2 0 1.15 0 .6 .55 0 1.15 0 2 0 2.85 .6 3.4 1.2 4 2 4 2.85 4 3.45 3.4 4 2.85 4 2 4 1.15 3.45 .55Z"/></g><animate attributeName="display" repeatCount="indefinite" dur="5.417s" keyTimes="0;.438;1" values="inline;none;none"/></g><g display="none"><g id="Symbol-11" transform="translate(51.8 165)"><animateTransform attributeName="transform" additive="replace" type="translate" dur="5.417s" keyTimes="0;1" values="0,0;0,0" fill="freeze"/><animateTransform attributeName="transform" additive="sum" type="translate" repeatCount="indefinite" dur="5.417s" keyTimes="0;.462;.469;.477;.485;.492;.5;.508;.515;.523;.531;.538;.546;.554;.562;.569;.577;.585;.592;.6;.608;.615;.623;.631;.638;.646;.654;.661;.668;.66899;.669;1" values="51.8,165;51.8,165;51.5,164.4;51.2,163.8;50.9,163.2;50.6,162.6;50.3,162;50,161.4;49.7,160.8;49.4,160.2;49.15,159.65;48.8,159;49.15,158.15;49.5,157.25;49.8,156.35;50.15,155.45;50.5,154.6;50.8,153.7;51.15,152.8;51.5,151.9;51.8,151;51.9,150.25;52.05,149.5;52.15,148.75;52.3,147.95;52.45,147.2;52.55,146.45;52.7,145.65;52.8,144.9;52.95,144.15;0;0"/><animateTransform attributeName="transform" additive="sum" type="translate" repeatCount="indefinite" dur="5.417s" keyTimes="0;.66899;.669;.677;.685;1" values="0;0;52.8,144.9;52.95,144.15;53.1,143.35;53.1,143.35"/><path fill="#91D3D9" stroke="none" d="M3.4 .6Q2.8 0 2 0 1.15 0 .6 .6 0 1.2 0 2 0 2.85 .6 3.4 1.15 4 2 4 2.8 4 3.4 3.4 4 2.85 4 2 4 1.2 3.4 .6Z"/></g><animate attributeName="display" repeatCount="indefinite" dur="5.417s" keyTimes="0;.462;.808;1" values="none;inline;none;none"/></g><g><g id="Symbol-10" transform="translate(31.75 186.6)"><animateTransform attributeName="transform" additive="replace" type="translate" dur="5.417s" keyTimes="0;1" values="0,0;0,0" fill="freeze"/><animateTransform attributeName="transform" additive="sum" type="translate" repeatCount="indefinite" dur="5.417s" keyTimes="0;.008;.015;.023;.031;.038;.046;.054;.062;.069;.077;.085;.092;.1;.108;.115;.123;.131;.138;.146;.154;.162;.169;.177;.185;.192;.2;.208;.214;.21499;.215;1" values="31.75,186.6;32.45,186.1;33.2,185.6;33.95,185.1;34.65,184.6;34.55,184.1;34.4,183.6;34.25,183.2;34.05,182.8;33.9,182.4;33.75,182;33.6,181.6;33.45,181.15;33.2,180.75;32.9,180.35;32.6,179.95;32.3,179.55;32,179.1;31.75,178.75;31.5,178.35;31.25,177.95;31.1,177.55;30.95,177.2;30.8,176.8;30.65,176.4;30.5,176;30.35,175.6;30.45,175.25;30.85,174.9;31.25,174.55;0;0"/><animateTransform attributeName="transform" additive="sum" type="translate" repeatCount="indefinite" dur="5.417s" keyTimes="0;.21499;.215;.223;.231;.238;.246;.254;.262;.269;.277;.285;.292;.3;.308;.315;.323;.331;.338;.346;.354;.362;.369;.377;.385;.392;.4;1" values="0;0;30.85,174.9;31.25,174.55;31.6,174.2;31.95,173.85;32.3,173.5;32.65,173.1;32.75,172.8;32.9,172.45;33.05,172.1;33.15,171.8;33.3,171.45;33.4,171.1;33.55,170.8;33.65,170.5;33.75,170.2;33.85,169.9;34,169.6;34.1,169.3;34.2,168.95;34.3,168.65;34.4,168.35;34.45,168.05;34.55,167.75;34.65,167.45;34.75,167.1;34.75,167.1"/><path fill="#FFF" stroke="none" d="M2.55 .45Q2.1 0 1.5 0 .85 0 .45 .45 0 .9 0 1.5 0 2.15 .45 2.55 .85 3 1.5 3 2.1 3 2.55 2.55 3 2.15 3 1.5 3 .9 2.55 .45Z"/></g><animate attributeName="display" repeatCount="indefinite" dur="5.417s" keyTimes="0;.408;1" values="inline;none;none"/></g><g display="none"><g id="Symbol-9" transform="translate(36.4 165.55)"><animateTransform attributeName="transform" additive="replace" type="translate" dur="5.417s" keyTimes="0;1" values="0,0;0,0" fill="freeze"/><animateTransform attributeName="transform" additive="sum" type="translate" repeatCount="indefinite" dur="5.417s" keyTimes="0;.431;.438;.446;.454;.462;.469;.477;.485;.492;.5;.508;.515;.523;.531;.538;.546;.554;.562;.569;.577;.585;.592;.6;.608;.615;.623;.631;.637;.63799;.638;1" values="36.4,165.55;36.4,165.55;36,165.15;35.65,164.75;35.3,164.3;34.95,163.9;34.65,163.5;34.6,163.05;35.2,162.65;35.75,162.25;36.25,161.8;36.7,161.4;37.15,161;37.6,160.55;38,160.1;38.35,159.65;38.2,159.2;38.05,158.75;37.9,158.3;37.8,157.85;37.65,157.4;37.55,156.95;37.4,156.5;37.3,156.05;37.2,155.55;37.1,154.85;37,154.15;36.9,153.4;36.8,152.7;36.7,151.95;0;0"/><animateTransform attributeName="transform" additive="sum" type="translate" repeatCount="indefinite" dur="5.417s" keyTimes="0;.63799;.638;.646;.654;.661;.669;.677;.685;.692;.7;.708;.715;.723;1" values="0;0;36.8,152.7;36.7,151.95;36.65,151.25;36.55,150.55;36.45,149.8;36.4,149.1;36.35,148.35;36.25,147.65;36.2,146.95;36.1,146.2;36,145.5;35.9,144.75;35.9,144.75"/><path fill="#91D3D9" stroke="none" d="M2.55 .45Q2.1 0 1.5 0 .85 0 .45 .45 0 .9 0 1.5 0 2.15 .45 2.55 .85 3 1.5 3 2.1 3 2.55 2.55 3 2.15 3 1.5 3 .9 2.55 .45Z"/></g><animate attributeName="display" repeatCount="indefinite" dur="5.417s" keyTimes="0;.431;.731;1" values="none;inline;none;none"/></g><path id="Layer2_0_1_STROKES" stroke="#FFF" stroke-width="3.9" stroke-linejoin="round" stroke-linecap="round" fill="none" d="M70.25 168.35Q70.25 178.05 63.25 184.9 56.35 191.8 46.5 191.8 36.65 191.8 29.65 184.9 22.7 178.05 22.7 168.35 22.7 158.7 29.65 151.8 36.65 144.95 46.5 144.95 56.35 144.95 63.25 151.8 70.25 158.7 70.25 168.35Z"/><g display="none"><g id="Symbol-8" transform="translate(42.4 162.85)"><animateTransform attributeName="transform" additive="replace" type="translate" dur="5.417s" keyTimes="0;1" values="0,0;0,0" fill="freeze"/><animateTransform attributeName="transform" additive="sum" type="translate" repeatCount="indefinite" dur="5.417s" keyTimes="0;.569;.577;.585;.592;.6;.608;.615;.623;.631;.638;.646;.654;.661;.669;.677;.685;.692;.7;.708;.715;.723;.731;.738;.746;.754;.761;.769;.776;.77699;.777;1" values="42.4,162.85;42.4,162.85;43.1,162.25;43.85,161.6;44.55,161;45.2,160.35;44.95,159.75;44.45,159.1;43.95,158.5;43.45,157.85;43,157.15;42.55,156.45;42.55,155.75;42.85,155.05;43.15,154.35;43.4,153.65;43.65,152.95;43.9,152.25;44.15,151.6;44.4,150.85;44.65,150.15;44.85,149.4;45.1,148.65;45.3,147.95;45.3,147.2;45.2,146.45;45.1,145.75;45.05,145;44.95,144.25;44.85,143.55;0;0"/><animateTransform attributeName="transform" additive="sum" type="translate" repeatCount="indefinite" dur="5.417s" keyTimes="0;.77699;.777;.785;.792;.8;.808;.815;.823;.831;.838;.846;.854;.861;.869;.877;.885;.892;.9;.908;.915;.923;.931;.938;1" values="0;0;44.95,144.25;44.85,143.55;44.75,142.8;44.7,142.05;44.6,141.35;44.55,140.6;44.45,139.85;44.4,138.95;44.3,138.05;44.25,137.15;44.15,136.25;44.1,135.35;44.05,134.45;44,133.55;43.9,132.65;43.9,131.75;43.9,130.85;43.9,129.95;43.9,129.05;43.9,128.15;43.9,127.25;43.9,126.35;43.9,126.35"/><path fill="#91D3D9" stroke="none" d="M5.4 .85Q4.5 0 3.15 0 1.8 0 .95 .85 0 1.8 0 3.15 0 4.45 .95 5.35 1.9 6.3 3.15 6.3 4.5 6.3 5.4 5.35 6.3 4.45 6.3 3.15 6.3 1.8 5.4 .85Z"/></g><animate attributeName="display" repeatCount="indefinite" dur="5.417s" keyTimes="0;.569;1" values="none;inline;inline"/></g><path fill="#F2F2F2" stroke="none" d="M54.9 132.65L54.9 126.25 38.45 126.25 38.45 132.65 54.9 132.65Z"/><path fill="#FFF" stroke="none" d="M57.25 139.05L52.4 139.05 52.4 146.25 57.25 146.25 57.25 139.05Z"/></g></svg>